<?xml version="1.0" encoding="UTF-8"?><svg id="Design" xmlns="http://www.w3.org/2000/svg" viewBox="0 0 1018.11 1415.12"><defs><style>.cls-1{fill:#fc0d6c;}.cls-2{fill:#42a584;}.cls-3{fill:#fff;}.cls-4{fill:#45c2f0;}.cls-5{fill:#004e95;}.cls-6{stroke-width:3px;}.cls-6,.cls-7,.cls-8{fill:none;stroke:#004e95;stroke-miterlimit:10;}.cls-7{stroke-width:1.58px;}.cls-8{stroke-width:1.58px;}</style></defs><rect class="cls-5" x="7.49" y="7.7" width="300.64" height="62.16" rx="31.08" ry="31.08"/><g><path class="cls-3" d="M37.11,22.9h4.64v21.56h11.05v4h-15.69V22.9Z"/><path class="cls-3" d="M63.82,29.66c5.29,0,8.13,3.85,8.13,8.71,0,.54-.11,1.76-.11,1.76h-12.67c.29,3.2,2.77,4.86,5.51,4.86,2.95,0,5.29-2.02,5.29-2.02l1.76,3.28s-2.81,2.63-7.38,2.63c-6.08,0-9.86-4.39-9.86-9.61,0-5.65,3.85-9.61,9.32-9.61Zm3.53,7.34c-.07-2.48-1.62-3.82-3.64-3.82-2.34,0-3.96,1.44-4.39,3.82h8.03Z"/><path class="cls-3" d="M85.06,36.93h.61v-.25c0-2.41-1.51-3.24-3.53-3.24-2.63,0-5.04,1.76-5.04,1.76l-1.73-3.28s2.84-2.27,7.2-2.27c4.82,0,7.63,2.66,7.63,7.31v11.48h-4.21v-1.51c0-.72,.07-1.3,.07-1.3h-.07s-1.4,3.24-5.58,3.24c-3.28,0-6.23-2.05-6.23-5.72,0-5.83,7.88-6.23,10.87-6.23Zm-3.49,8.39c2.41,0,4.14-2.59,4.14-4.82v-.43h-.79c-2.34,0-6.12,.32-6.12,2.88,0,1.22,.9,2.38,2.77,2.38Z"/><path class="cls-3" d="M102.01,29.66c4.03,0,5.29,2.34,5.29,2.34h.07s-.04-.47-.04-1.04v-8.06h4.57v25.56h-4.32v-1.51c0-.68,.07-1.19,.07-1.19h-.07s-1.55,3.13-5.76,3.13c-4.97,0-8.14-3.92-8.14-9.61s3.46-9.61,8.31-9.61Zm.86,15.37c2.38,0,4.61-1.73,4.61-5.8,0-2.84-1.51-5.65-4.57-5.65-2.52,0-4.61,2.05-4.61,5.69s1.87,5.76,4.57,5.76Z"/><path class="cls-3" d="M137.8,22.46c6.23,0,9.43,3.49,9.43,3.49l-2.23,3.46s-2.92-2.7-6.98-2.7c-5.4,0-8.57,4.03-8.57,8.78s3.28,9.14,8.6,9.14c4.43,0,7.42-3.24,7.42-3.24l2.45,3.35s-3.53,4.14-10.04,4.14c-7.81,0-13.21-5.8-13.21-13.32s5.62-13.1,13.14-13.1Z"/><path class="cls-3" d="M160.8,36.93h.61v-.25c0-2.41-1.51-3.24-3.53-3.24-2.63,0-5.04,1.76-5.04,1.76l-1.73-3.28s2.84-2.27,7.2-2.27c4.82,0,7.63,2.66,7.63,7.31v11.48h-4.21v-1.51c0-.72,.07-1.3,.07-1.3h-.07s-1.4,3.24-5.58,3.24c-3.28,0-6.23-2.05-6.23-5.72,0-5.83,7.88-6.23,10.87-6.23Zm-3.49,8.39c2.41,0,4.14-2.59,4.14-4.82v-.43h-.79c-2.34,0-6.12,.32-6.12,2.88,0,1.22,.9,2.38,2.77,2.38Z"/><path class="cls-3" d="M170.7,30.09h4.18v1.33c0,.68-.07,1.26-.07,1.26h.07s1.58-3.02,5.9-3.02c4.97,0,8.13,3.92,8.13,9.61s-3.56,9.61-8.39,9.61c-3.64,0-5.26-2.52-5.26-2.52h-.07s.07,.65,.07,1.58v7.7h-4.57V30.09Zm9,14.94c2.52,0,4.61-2.05,4.61-5.69s-1.87-5.76-4.57-5.76c-2.38,0-4.61,1.73-4.61,5.8,0,2.84,1.55,5.65,4.57,5.65Z"/><path class="cls-3" d="M193.49,34.02h-2.38v-3.64h2.48v-5.29h4.46v5.29h4.18v3.64h-4.18v7.13c0,3.02,2.38,3.46,3.64,3.46,.5,0,.83-.07,.83-.07v4s-.54,.11-1.4,.11c-2.56,0-7.63-.76-7.63-6.91v-7.7Z"/><path class="cls-3" d="M206.02,30.09h4.57v10.87c0,2.23,.58,3.74,2.84,3.74,3.31,0,5.15-2.92,5.15-6.19v-8.42h4.57v18.36h-4.39v-2.09c0-.72,.07-1.3,.07-1.3h-.07c-.9,1.91-3.24,3.82-6.37,3.82-3.92,0-6.37-1.98-6.37-6.98v-11.81Z"/><path class="cls-3" d="M228.19,30.09h4.39v3.17c0,.68-.07,1.3-.07,1.3h.07c.83-2.63,3.02-4.72,5.83-4.72,.43,0,.83,.07,.83,.07v4.5s-.47-.07-1.08-.07c-1.94,0-4.14,1.12-5,3.85-.29,.9-.4,1.91-.4,2.99v7.27h-4.57V30.09Z"/><path class="cls-3" d="M250.37,29.66c5.29,0,8.13,3.85,8.13,8.71,0,.54-.11,1.76-.11,1.76h-12.67c.29,3.2,2.77,4.86,5.51,4.86,2.95,0,5.29-2.02,5.29-2.02l1.76,3.28s-2.81,2.63-7.38,2.63c-6.08,0-9.86-4.39-9.86-9.61,0-5.65,3.85-9.61,9.32-9.61Zm3.53,7.34c-.07-2.48-1.62-3.82-3.64-3.82-2.34,0-3.96,1.44-4.39,3.82h8.03Z"/><path class="cls-3" d="M269.34,29.66c4.03,0,5.29,2.34,5.29,2.34h.07s-.04-.47-.04-1.04v-8.06h4.57v25.56h-4.32v-1.51c0-.68,.07-1.19,.07-1.19h-.07s-1.55,3.13-5.76,3.13c-4.97,0-8.14-3.92-8.14-9.61s3.46-9.61,8.31-9.61Zm.86,15.37c2.38,0,4.61-1.73,4.61-5.8,0-2.84-1.51-5.65-4.57-5.65-2.52,0-4.61,2.05-4.61,5.69s1.87,5.76,4.57,5.76Z"/></g><g><g><path class="cls-5" d="M67.65,151.65h2.92l3.28,9.72c.29,.86,.55,2.18,.57,2.18h.04s.27-1.32,.57-2.18l3.3-9.72h2.9l-5.44,14.91h-2.69l-5.44-14.91Z"/><path class="cls-5" d="M87.7,159.83h.36v-.15c0-1.41-.88-1.89-2.06-1.89-1.53,0-2.94,1.03-2.94,1.03l-1.01-1.91s1.66-1.32,4.2-1.32c2.81,0,4.45,1.55,4.45,4.26v6.7h-2.46v-.88c0-.42,.04-.76,.04-.76h-.04s-.82,1.89-3.25,1.89c-1.91,0-3.63-1.2-3.63-3.34,0-3.4,4.6-3.63,6.34-3.63Zm-2.04,4.89c1.41,0,2.41-1.51,2.41-2.81v-.25h-.46c-1.36,0-3.57,.19-3.57,1.68,0,.71,.52,1.39,1.62,1.39Z"/><path class="cls-5" d="M93.33,151.65h2.65v11.17c0,1.18,.4,1.47,1.09,1.47,.21,0,.4-.02,.4-.02v2.33s-.4,.06-.84,.06c-1.47,0-3.3-.38-3.3-3.44v-11.57Z"/><path class="cls-5" d="M99.44,151.65h2.65v2.37h-2.65v-2.37Zm0,4.2h2.67v10.71h-2.67v-10.71Z"/><path class="cls-5" d="M109.17,155.59c2.35,0,3.09,1.36,3.09,1.36h.04s-.02-.27-.02-.61v-4.7h2.67v14.91h-2.52v-.88c0-.4,.04-.69,.04-.69h-.04s-.9,1.83-3.36,1.83c-2.9,0-4.75-2.29-4.75-5.61s2.02-5.61,4.85-5.61Zm.5,8.97c1.39,0,2.69-1.01,2.69-3.38,0-1.66-.88-3.3-2.67-3.3-1.47,0-2.69,1.2-2.69,3.32s1.09,3.36,2.67,3.36Z"/><path class="cls-5" d="M123.32,159.83h.36v-.15c0-1.41-.88-1.89-2.06-1.89-1.53,0-2.94,1.03-2.94,1.03l-1.01-1.91s1.66-1.32,4.2-1.32c2.81,0,4.45,1.55,4.45,4.26v6.7h-2.46v-.88c0-.42,.04-.76,.04-.76h-.04s-.82,1.89-3.25,1.89c-1.91,0-3.63-1.2-3.63-3.34,0-3.4,4.6-3.63,6.34-3.63Zm-2.04,4.89c1.41,0,2.41-1.51,2.41-2.81v-.25h-.46c-1.36,0-3.57,.19-3.57,1.68,0,.71,.52,1.39,1.62,1.39Z"/><path class="cls-5" d="M129.5,158.13h-1.39v-2.12h1.45v-3.09h2.6v3.09h2.44v2.12h-2.44v4.16c0,1.76,1.39,2.02,2.12,2.02,.29,0,.48-.04,.48-.04v2.33s-.31,.06-.82,.06c-1.49,0-4.45-.44-4.45-4.03v-4.49Z"/><path class="cls-5" d="M141.63,155.59c3.09,0,4.75,2.25,4.75,5.08,0,.31-.06,1.03-.06,1.03h-7.39c.17,1.87,1.62,2.83,3.21,2.83,1.72,0,3.09-1.18,3.09-1.18l1.03,1.91s-1.64,1.53-4.3,1.53c-3.55,0-5.75-2.56-5.75-5.61,0-3.3,2.25-5.61,5.44-5.61Zm2.06,4.28c-.04-1.45-.94-2.23-2.12-2.23-1.36,0-2.31,.84-2.56,2.23h4.68Z"/><path class="cls-5" d="M154.11,151.65h2.71v12.58h6.45v2.33h-9.15v-14.91Z"/><path class="cls-5" d="M169.69,155.59c3.09,0,4.75,2.25,4.75,5.08,0,.31-.06,1.03-.06,1.03h-7.39c.17,1.87,1.62,2.83,3.21,2.83,1.72,0,3.09-1.18,3.09-1.18l1.03,1.91s-1.64,1.53-4.3,1.53c-3.55,0-5.75-2.56-5.75-5.61,0-3.3,2.25-5.61,5.44-5.61Zm2.06,4.28c-.04-1.45-.94-2.23-2.12-2.23-1.36,0-2.31,.84-2.56,2.23h4.68Z"/><path class="cls-5" d="M182.08,159.83h.36v-.15c0-1.41-.88-1.89-2.06-1.89-1.53,0-2.94,1.03-2.94,1.03l-1.01-1.91s1.66-1.32,4.2-1.32c2.81,0,4.45,1.55,4.45,4.26v6.7h-2.46v-.88c0-.42,.04-.76,.04-.76h-.04s-.82,1.89-3.25,1.89c-1.91,0-3.63-1.2-3.63-3.34,0-3.4,4.6-3.63,6.34-3.63Zm-2.04,4.89c1.41,0,2.41-1.51,2.41-2.81v-.25h-.46c-1.36,0-3.57,.19-3.57,1.68,0,.71,.52,1.39,1.62,1.39Z"/><path class="cls-5" d="M191.97,155.59c2.35,0,3.09,1.36,3.09,1.36h.04s-.02-.27-.02-.61v-4.7h2.67v14.91h-2.52v-.88c0-.4,.04-.69,.04-.69h-.04s-.9,1.83-3.36,1.83c-2.9,0-4.75-2.29-4.75-5.61s2.02-5.61,4.85-5.61Zm.5,8.97c1.39,0,2.69-1.01,2.69-3.38,0-1.66-.88-3.3-2.67-3.3-1.47,0-2.69,1.2-2.69,3.32s1.09,3.36,2.67,3.36Z"/><path class="cls-5" d="M204.61,155.85h2.81l1.87,7.03c.15,.57,.21,1.13,.21,1.13h.04s.1-.57,.25-1.13l1.97-7.01h2.37l1.97,7.01c.15,.57,.23,1.13,.23,1.13h.04s.08-.57,.23-1.13l1.87-7.03h2.77l-3.25,10.71h-2.96l-1.81-6.11c-.17-.57-.27-1.15-.27-1.15h-.04s-.08,.59-.25,1.15l-1.81,6.11h-2.98l-3.28-10.71Z"/><path class="cls-5" d="M223.03,151.65h2.65v2.37h-2.65v-2.37Zm0,4.2h2.67v10.71h-2.67v-10.71Z"/><path class="cls-5" d="M229.1,158.13h-1.39v-2.12h1.45v-3.09h2.6v3.09h2.44v2.12h-2.44v4.16c0,1.76,1.39,2.02,2.12,2.02,.29,0,.48-.04,.48-.04v2.33s-.31,.06-.82,.06c-1.49,0-4.45-.44-4.45-4.03v-4.49Z"/><path class="cls-5" d="M236.55,151.65h2.67v5.17c0,.52-.04,.9-.04,.9h.04c.52-1.03,1.83-2.12,3.7-2.12,2.37,0,3.72,1.24,3.72,4.07v6.89h-2.65v-6.34c0-1.3-.34-2.18-1.7-2.18s-2.5,.92-2.9,2.23c-.13,.42-.17,.88-.17,1.39v4.91h-2.67v-14.91Z"/><path class="cls-5" d="M81.34,187.93s1.62,1.57,3.72,1.57c1.13,0,2.16-.59,2.16-1.81,0-2.67-7.03-2.2-7.03-6.78,0-2.48,2.14-4.33,5-4.33s4.45,1.6,4.45,1.6l-1.18,2.2s-1.43-1.3-3.3-1.3c-1.26,0-2.25,.73-2.25,1.78,0,2.65,7.01,1.99,7.01,6.76,0,2.37-1.81,4.37-4.91,4.37-3.32,0-5.14-2.04-5.14-2.04l1.47-2.04Z"/><path class="cls-5" d="M96.9,180.79c3.09,0,4.75,2.25,4.75,5.08,0,.31-.06,1.03-.06,1.03h-7.39c.17,1.87,1.62,2.83,3.21,2.83,1.72,0,3.09-1.18,3.09-1.18l1.03,1.91s-1.64,1.53-4.3,1.53c-3.55,0-5.75-2.56-5.75-5.61,0-3.3,2.25-5.61,5.44-5.61Zm2.06,4.28c-.04-1.45-.94-2.23-2.12-2.23-1.36,0-2.31,.84-2.56,2.23h4.68Z"/><path class="cls-5" d="M103.85,181.04h2.56v1.85c0,.4-.04,.76-.04,.76h.04c.48-1.53,1.76-2.75,3.4-2.75,.25,0,.48,.04,.48,.04v2.62s-.27-.04-.63-.04c-1.13,0-2.41,.65-2.92,2.25-.17,.52-.23,1.11-.23,1.74v4.24h-2.67v-10.71Z"/><path class="cls-5" d="M110.91,181.04h2.81l2.23,6.63c.21,.63,.36,1.62,.38,1.62h.04s.17-.99,.38-1.62l2.23-6.63h2.81l-3.84,10.71h-3.15l-3.88-10.71Z"/><path class="cls-5" d="M123.28,176.85h2.65v2.37h-2.65v-2.37Zm0,4.2h2.67v10.71h-2.67v-10.71Z"/><path class="cls-5" d="M133.92,180.79c2.79,0,4.12,1.6,4.12,1.6l-1.18,1.83s-1.11-1.15-2.79-1.15c-1.97,0-3.25,1.49-3.25,3.32s1.3,3.36,3.34,3.36c1.81,0,3.15-1.36,3.15-1.36l1.03,1.89s-1.53,1.74-4.41,1.74c-3.55,0-5.82-2.5-5.82-5.61s2.27-5.61,5.82-5.61Z"/><path class="cls-5" d="M145.01,180.79c3.09,0,4.75,2.25,4.75,5.08,0,.31-.06,1.03-.06,1.03h-7.39c.17,1.87,1.62,2.83,3.21,2.83,1.72,0,3.09-1.18,3.09-1.18l1.03,1.91s-1.64,1.53-4.3,1.53c-3.55,0-5.75-2.56-5.75-5.61,0-3.3,2.25-5.61,5.44-5.61Zm2.06,4.28c-.04-1.45-.94-2.23-2.12-2.23-1.36,0-2.31,.84-2.56,2.23h4.68Z"/><path class="cls-5" d="M164.16,176.59c4.39,0,7.71,3.34,7.71,7.6s-3.32,7.81-7.71,7.81-7.71-3.42-7.71-7.81,3.32-7.6,7.71-7.6Zm0,12.93c2.73,0,4.91-2.27,4.91-5.33s-2.18-5.12-4.91-5.12-4.91,2.18-4.91,5.12,2.18,5.33,4.91,5.33Z"/><path class="cls-5" d="M174.2,176.85h2.67v4.6c0,.52-.04,.9-.04,.9h.04s.94-1.55,3.21-1.55c2.9,0,4.75,2.29,4.75,5.61s-2.08,5.61-4.91,5.61c-2.23,0-3.19-1.6-3.19-1.6h-.04s.04,.31,.04,.73v.61h-2.52v-14.91Zm5.25,12.91c1.47,0,2.69-1.2,2.69-3.32s-1.09-3.36-2.67-3.36c-1.39,0-2.69,1.01-2.69,3.38,0,1.66,.88,3.3,2.67,3.3Z"/><path class="cls-5" d="M189.7,181.04v11.02c0,3.59-3,4.03-4.47,4.03-.5,0-.82-.06-.82-.06v-2.25s.19,.04,.46,.04c.76,0,2.16-.23,2.16-1.97v-10.81h2.67Zm-2.67-4.2h2.65v2.37h-2.65v-2.37Z"/><path class="cls-5" d="M197.32,180.79c3.09,0,4.75,2.25,4.75,5.08,0,.31-.06,1.03-.06,1.03h-7.39c.17,1.87,1.62,2.83,3.21,2.83,1.72,0,3.09-1.18,3.09-1.18l1.03,1.91s-1.64,1.53-4.3,1.53c-3.55,0-5.75-2.56-5.75-5.61,0-3.3,2.25-5.61,5.44-5.61Zm2.06,4.28c-.04-1.45-.94-2.23-2.12-2.23-1.36,0-2.31,.84-2.56,2.23h4.68Z"/><path class="cls-5" d="M209.31,180.79c2.79,0,4.12,1.6,4.12,1.6l-1.18,1.83s-1.11-1.15-2.79-1.15c-1.97,0-3.25,1.49-3.25,3.32s1.3,3.36,3.34,3.36c1.81,0,3.15-1.36,3.15-1.36l1.03,1.89s-1.53,1.74-4.41,1.74c-3.55,0-5.82-2.5-5.82-5.61s2.27-5.61,5.82-5.61Z"/><path class="cls-5" d="M216.18,183.33h-1.39v-2.12h1.45v-3.09h2.6v3.09h2.44v2.12h-2.44v4.16c0,1.76,1.39,2.02,2.12,2.02,.29,0,.48-.04,.48-.04v2.33s-.31,.06-.82,.06c-1.49,0-4.45-.44-4.45-4.03v-4.49Z"/><path class="cls-5" d="M223.95,188.56s1.18,1.18,2.92,1.18c.76,0,1.41-.34,1.41-.97,0-1.6-5.21-1.39-5.21-4.83,0-1.99,1.78-3.15,4.09-3.15s3.59,1.22,3.59,1.22l-.99,1.97s-.99-.92-2.62-.92c-.69,0-1.36,.29-1.36,.97,0,1.51,5.21,1.32,5.21,4.77,0,1.78-1.55,3.21-4.09,3.21-2.67,0-4.16-1.57-4.16-1.57l1.22-1.87Z"/><path class="cls-5" d="M233.57,176.59h2.46l-1.55,4.6h-1.89l.99-4.6Z"/><path class="cls-5" d="M61.99,202.05h2.71v12.58h6.45v2.33h-9.15v-14.91Z"/><path class="cls-5" d="M77.57,205.99c3.09,0,4.75,2.25,4.75,5.08,0,.31-.06,1.03-.06,1.03h-7.39c.17,1.87,1.62,2.83,3.21,2.83,1.72,0,3.09-1.18,3.09-1.18l1.03,1.91s-1.64,1.53-4.3,1.53c-3.55,0-5.75-2.56-5.75-5.61,0-3.3,2.25-5.61,5.44-5.61Zm2.06,4.28c-.04-1.45-.94-2.23-2.12-2.23-1.36,0-2.31,.84-2.56,2.23h4.68Z"/><path class="cls-5" d="M89.96,210.23h.36v-.15c0-1.41-.88-1.89-2.06-1.89-1.53,0-2.94,1.03-2.94,1.03l-1.01-1.91s1.66-1.32,4.2-1.32c2.81,0,4.45,1.55,4.45,4.26v6.7h-2.46v-.88c0-.42,.04-.76,.04-.76h-.04s-.82,1.89-3.25,1.89c-1.91,0-3.63-1.2-3.63-3.34,0-3.4,4.6-3.63,6.34-3.63Zm-2.04,4.89c1.41,0,2.41-1.51,2.41-2.81v-.25h-.46c-1.36,0-3.57,.19-3.57,1.68,0,.71,.52,1.39,1.62,1.39Z"/><path class="cls-5" d="M99.85,205.99c2.35,0,3.09,1.36,3.09,1.36h.04s-.02-.27-.02-.61v-4.7h2.67v14.91h-2.52v-.88c0-.4,.04-.69,.04-.69h-.04s-.9,1.83-3.36,1.83c-2.9,0-4.75-2.29-4.75-5.61s2.02-5.61,4.85-5.61Zm.5,8.97c1.39,0,2.69-1.01,2.69-3.38,0-1.66-.88-3.3-2.67-3.3-1.47,0-2.69,1.2-2.69,3.32s1.09,3.36,2.67,3.36Z"/><path class="cls-5" d="M112.18,202.05h2.92l3.28,9.72c.29,.86,.55,2.18,.57,2.18h.04s.27-1.32,.57-2.18l3.3-9.72h2.9l-5.44,14.91h-2.69l-5.44-14.91Z"/><path class="cls-5" d="M132.23,210.23h.36v-.15c0-1.41-.88-1.89-2.06-1.89-1.53,0-2.94,1.03-2.94,1.03l-1.01-1.91s1.66-1.32,4.2-1.32c2.81,0,4.45,1.55,4.45,4.26v6.7h-2.46v-.88c0-.42,.04-.76,.04-.76h-.04s-.82,1.89-3.25,1.89c-1.91,0-3.63-1.2-3.63-3.34,0-3.4,4.6-3.63,6.34-3.63Zm-2.04,4.89c1.41,0,2.41-1.51,2.41-2.81v-.25h-.46c-1.36,0-3.57,.19-3.57,1.68,0,.71,.52,1.39,1.62,1.39Z"/><path class="cls-5" d="M137.86,202.05h2.65v11.17c0,1.18,.4,1.47,1.09,1.47,.21,0,.4-.02,.4-.02v2.33s-.4,.06-.84,.06c-1.47,0-3.3-.38-3.3-3.44v-11.57Z"/><path class="cls-5" d="M143.97,202.05h2.65v2.37h-2.65v-2.37Zm0,4.2h2.67v10.71h-2.67v-10.71Z"/><path class="cls-5" d="M153.7,205.99c2.35,0,3.09,1.36,3.09,1.36h.04s-.02-.27-.02-.61v-4.7h2.67v14.91h-2.52v-.88c0-.4,.04-.69,.04-.69h-.04s-.9,1.83-3.36,1.83c-2.9,0-4.75-2.29-4.75-5.61s2.02-5.61,4.85-5.61Zm.5,8.97c1.39,0,2.69-1.01,2.69-3.38,0-1.66-.88-3.3-2.67-3.3-1.47,0-2.69,1.2-2.69,3.32s1.09,3.36,2.67,3.36Z"/><path class="cls-5" d="M167.85,210.23h.36v-.15c0-1.41-.88-1.89-2.06-1.89-1.53,0-2.94,1.03-2.94,1.03l-1.01-1.91s1.66-1.32,4.2-1.32c2.81,0,4.45,1.55,4.45,4.26v6.7h-2.46v-.88c0-.42,.04-.76,.04-.76h-.04s-.82,1.89-3.25,1.89c-1.91,0-3.63-1.2-3.63-3.34,0-3.4,4.6-3.63,6.34-3.63Zm-2.04,4.89c1.41,0,2.41-1.51,2.41-2.81v-.25h-.46c-1.36,0-3.57,.19-3.57,1.68,0,.71,.52,1.39,1.62,1.39Z"/><path class="cls-5" d="M174.03,208.53h-1.39v-2.12h1.45v-3.09h2.6v3.09h2.44v2.12h-2.44v4.16c0,1.76,1.39,2.02,2.12,2.02,.29,0,.48-.04,.48-.04v2.33s-.31,.06-.82,.06c-1.49,0-4.45-.44-4.45-4.03v-4.49Z"/><path class="cls-5" d="M181.48,202.05h2.65v2.37h-2.65v-2.37Zm0,4.2h2.67v10.71h-2.67v-10.71Z"/><path class="cls-5" d="M192.17,205.99c3.28,0,5.9,2.33,5.9,5.61s-2.62,5.61-5.88,5.61-5.9-2.31-5.9-5.61,2.62-5.61,5.88-5.61Zm.02,8.94c1.72,0,3.17-1.34,3.17-3.34s-1.45-3.34-3.17-3.34-3.19,1.36-3.19,3.34,1.45,3.34,3.19,3.34Z"/><path class="cls-5" d="M200.21,206.24h2.56v1.24c0,.4-.04,.73-.04,.73h.04c.46-.9,1.64-2.23,3.8-2.23,2.37,0,3.72,1.24,3.72,4.07v6.89h-2.65v-6.34c0-1.3-.34-2.18-1.7-2.18s-2.48,.9-2.88,2.18c-.15,.44-.19,.92-.19,1.43v4.91h-2.67v-10.71Z"/><path class="cls-5" d="M226.02,213.13h-5.23l-1.26,3.82h-2.79l5.25-14.91h2.83l5.25,14.91h-2.79l-1.26-3.82Zm-2.62-8.5s-.34,1.47-.63,2.31l-1.32,3.99h3.91l-1.32-3.99c-.27-.84-.59-2.31-.59-2.31h-.04Z"/><path class="cls-5" d="M231.99,202.05h5.75c2.79,0,4.75,1.95,4.75,4.85s-1.95,4.91-4.75,4.91h-3.04v5.14h-2.71v-14.91Zm5.25,7.41c1.57,0,2.5-1.01,2.5-2.56s-.92-2.52-2.46-2.52h-2.58v5.08h2.54Z"/><path class="cls-5" d="M244.88,202.05h2.71v14.91h-2.71v-14.91Z"/><path class="cls-5" d="M251.18,206.24h2.65v2.67h-2.65v-2.67Zm0,8.04h2.65v2.67h-2.65v-2.67Z"/></g><rect class="cls-6" x="50.17" y="133.07" width="215.29" height="102.45" rx="9.54" ry="9.54"/></g><g><line class="cls-7" x1="157.81" y1="287.43" x2="157.81" y2="235.52"/><polygon class="cls-5" points="165.67 285.13 157.81 298.74 149.96 285.13 165.67 285.13"/></g><line class="cls-8" x1="157.81" y1="69.86" x2="157.81" y2="133.07"/><g><g><g><path class="cls-5" d="M143.15,1048.39h2.71l5.65,8.61c.57,.86,1.24,2.31,1.24,2.31h.04s-.15-1.43-.15-2.31v-8.61h2.69v14.91h-2.69l-5.65-8.59c-.57-.86-1.24-2.31-1.24-2.31h-.04s.15,1.43,.15,2.31v8.59h-2.71v-14.91Z"/><path class="cls-5" d="M165.79,1048.14c4.39,0,7.71,3.34,7.71,7.6s-3.32,7.81-7.71,7.81-7.71-3.42-7.71-7.81,3.32-7.6,7.71-7.6Zm0,12.93c2.73,0,4.91-2.27,4.91-5.33s-2.18-5.12-4.91-5.12-4.91,2.18-4.91,5.12,2.18,5.33,4.91,5.33Z"/></g><rect class="cls-8" x="101.27" y="1028.93" width="113.09" height="53.81" rx="9.54" ry="9.54"/></g><line class="cls-7" x1="157.72" y1="1028.93" x2="157.72" y2="997.33"/><g><line class="cls-7" x1="157.72" y1="1103.05" x2="157.72" y2="1082.75"/><polygon class="cls-5" points="165.58 1100.75 157.72 1114.36 149.86 1100.75 165.58 1100.75"/></g></g><g><g><g><path class="cls-5" d="M378.21,446.33l-4.96-8.67h3.07l2.33,4.39c.48,.92,.88,2.02,.9,1.99h.04s.42-1.07,.9-1.99l2.31-4.39h3.07l-4.96,8.67v6.24h-2.71v-6.24Z"/><path class="cls-5" d="M387.81,437.66h8.92v2.33h-6.21v3.91h5.02v2.33h-5.02v4.01h6.55v2.33h-9.26v-14.91Z"/><path class="cls-5" d="M400.22,448.75s1.62,1.57,3.72,1.57c1.13,0,2.16-.59,2.16-1.81,0-2.67-7.03-2.2-7.03-6.78,0-2.48,2.14-4.33,5-4.33s4.45,1.6,4.45,1.6l-1.18,2.2s-1.43-1.3-3.3-1.3c-1.26,0-2.25,.73-2.25,1.78,0,2.65,7.01,1.99,7.01,6.76,0,2.37-1.81,4.37-4.91,4.37-3.32,0-5.14-2.04-5.14-2.04l1.47-2.04Z"/></g><rect class="cls-8" x="334.88" y="418.21" width="113.09" height="53.81" rx="9.54" ry="9.54"/></g><line class="cls-8" x1="303.27" y1="445.11" x2="334.88" y2="445.11"/><g><line class="cls-7" x1="485.21" y1="445.11" x2="447.97" y2="445.11"/><polygon class="cls-5" points="482.91 437.26 496.52 445.11 482.91 452.97 482.91 437.26"/></g></g><g><rect class="cls-4" x="496.52" y="383.35" width="259.58" height="123.52"/><g><path class="cls-3" d="M570.04,425.06h2.71v12.58h6.45v2.33h-9.15v-14.91Z"/><path class="cls-3" d="M585.62,429.01c3.09,0,4.75,2.25,4.75,5.08,0,.31-.06,1.03-.06,1.03h-7.39c.17,1.87,1.62,2.83,3.21,2.83,1.72,0,3.09-1.18,3.09-1.18l1.03,1.91s-1.64,1.53-4.3,1.53c-3.55,0-5.75-2.56-5.75-5.61,0-3.3,2.25-5.61,5.44-5.61Zm2.06,4.28c-.04-1.45-.95-2.23-2.12-2.23-1.36,0-2.31,.84-2.56,2.23h4.68Z"/><path class="cls-3" d="M598.01,433.25h.36v-.15c0-1.41-.88-1.89-2.06-1.89-1.53,0-2.94,1.03-2.94,1.03l-1.01-1.91s1.66-1.32,4.2-1.32c2.81,0,4.45,1.55,4.45,4.26v6.7h-2.46v-.88c0-.42,.04-.76,.04-.76h-.04s-.82,1.89-3.25,1.89c-1.91,0-3.63-1.2-3.63-3.34,0-3.4,4.6-3.63,6.34-3.63Zm-2.04,4.89c1.41,0,2.42-1.51,2.42-2.81v-.25h-.46c-1.37,0-3.57,.19-3.57,1.68,0,.71,.52,1.39,1.62,1.39Z"/><path class="cls-3" d="M607.9,429.01c2.35,0,3.09,1.36,3.09,1.36h.04s-.02-.27-.02-.61v-4.7h2.67v14.91h-2.52v-.88c0-.4,.04-.69,.04-.69h-.04s-.9,1.83-3.36,1.83c-2.9,0-4.75-2.29-4.75-5.61s2.02-5.61,4.85-5.61Zm.5,8.97c1.39,0,2.69-1.01,2.69-3.38,0-1.66-.88-3.3-2.67-3.3-1.47,0-2.69,1.2-2.69,3.32s1.09,3.36,2.67,3.36Z"/><path class="cls-3" d="M622.14,425.06h5.75c2.79,0,4.75,1.95,4.75,4.85s-1.95,4.91-4.75,4.91h-3.04v5.14h-2.71v-14.91Zm5.25,7.41c1.57,0,2.5-1.01,2.5-2.56s-.92-2.52-2.46-2.52h-2.58v5.08h2.54Z"/><path class="cls-3" d="M640.05,433.25h.36v-.15c0-1.41-.88-1.89-2.06-1.89-1.53,0-2.94,1.03-2.94,1.03l-1.01-1.91s1.66-1.32,4.2-1.32c2.81,0,4.45,1.55,4.45,4.26v6.7h-2.46v-.88c0-.42,.04-.76,.04-.76h-.04s-.82,1.89-3.25,1.89c-1.91,0-3.63-1.2-3.63-3.34,0-3.4,4.6-3.63,6.34-3.63Zm-2.04,4.89c1.41,0,2.42-1.51,2.42-2.81v-.25h-.46c-1.37,0-3.57,.19-3.57,1.68,0,.71,.52,1.39,1.62,1.39Z"/><path class="cls-3" d="M646.14,436.78s1.18,1.18,2.92,1.18c.76,0,1.41-.34,1.41-.97,0-1.6-5.21-1.39-5.21-4.83,0-1.99,1.78-3.15,4.09-3.15s3.59,1.22,3.59,1.22l-.99,1.97s-.99-.92-2.62-.92c-.69,0-1.37,.29-1.37,.97,0,1.51,5.21,1.32,5.21,4.77,0,1.78-1.55,3.21-4.09,3.21-2.67,0-4.16-1.57-4.16-1.57l1.22-1.87Z"/><path class="cls-3" d="M655.63,436.78s1.18,1.18,2.92,1.18c.76,0,1.41-.34,1.41-.97,0-1.6-5.21-1.39-5.21-4.83,0-1.99,1.79-3.15,4.09-3.15s3.59,1.22,3.59,1.22l-.99,1.97s-.99-.92-2.62-.92c-.69,0-1.36,.29-1.36,.97,0,1.51,5.21,1.32,5.21,4.77,0,1.78-1.55,3.21-4.09,3.21-2.67,0-4.16-1.57-4.16-1.57l1.22-1.87Z"/><path class="cls-3" d="M669.49,429.01c3.09,0,4.75,2.25,4.75,5.08,0,.31-.06,1.03-.06,1.03h-7.39c.17,1.87,1.62,2.83,3.21,2.83,1.72,0,3.09-1.18,3.09-1.18l1.03,1.91s-1.64,1.53-4.3,1.53c-3.55,0-5.75-2.56-5.75-5.61,0-3.3,2.25-5.61,5.44-5.61Zm2.06,4.28c-.04-1.45-.95-2.23-2.12-2.23-1.36,0-2.31,.84-2.56,2.23h4.68Z"/><path class="cls-3" d="M676.76,436.78s1.18,1.18,2.92,1.18c.76,0,1.41-.34,1.41-.97,0-1.6-5.21-1.39-5.21-4.83,0-1.99,1.78-3.15,4.09-3.15s3.59,1.22,3.59,1.22l-.99,1.97s-.99-.92-2.62-.92c-.69,0-1.37,.29-1.37,.97,0,1.51,5.21,1.32,5.21,4.77,0,1.78-1.55,3.21-4.09,3.21-2.67,0-4.16-1.57-4.16-1.57l1.22-1.87Z"/><path class="cls-3" d="M560.1,456.75h-1.39v-2.12h1.45v-3.09h2.6v3.09h2.44v2.12h-2.44v4.16c0,1.76,1.39,2.02,2.12,2.02,.29,0,.48-.04,.48-.04v2.33s-.32,.06-.82,.06c-1.49,0-4.45-.44-4.45-4.03v-4.49Z"/><path class="cls-3" d="M572.64,454.21c3.28,0,5.9,2.33,5.9,5.61s-2.62,5.61-5.88,5.61-5.9-2.31-5.9-5.61,2.62-5.61,5.88-5.61Zm.02,8.94c1.72,0,3.17-1.34,3.17-3.34s-1.45-3.34-3.17-3.34-3.19,1.36-3.19,3.34,1.45,3.34,3.19,3.34Z"/><path class="cls-3" d="M592.84,450.01c3.63,0,5.5,2.04,5.5,2.04l-1.3,2.02s-1.7-1.57-4.07-1.57c-3.15,0-5,2.35-5,5.12s1.91,5.33,5.02,5.33c2.58,0,4.33-1.89,4.33-1.89l1.43,1.95s-2.06,2.41-5.86,2.41c-4.56,0-7.71-3.38-7.71-7.77s3.28-7.64,7.66-7.64Z"/><path class="cls-3" d="M606.26,458.45h.36v-.15c0-1.41-.88-1.89-2.06-1.89-1.53,0-2.94,1.03-2.94,1.03l-1.01-1.91s1.66-1.32,4.2-1.32c2.81,0,4.45,1.55,4.45,4.26v6.7h-2.46v-.88c0-.42,.04-.76,.04-.76h-.04s-.82,1.89-3.25,1.89c-1.91,0-3.63-1.2-3.63-3.34,0-3.4,4.6-3.63,6.34-3.63Zm-2.04,4.89c1.41,0,2.42-1.51,2.42-2.81v-.25h-.46c-1.37,0-3.57,.19-3.57,1.68,0,.71,.52,1.39,1.62,1.39Z"/><path class="cls-3" d="M612.04,454.46h2.56v1.24c0,.4-.04,.73-.04,.73h.04c.53-1.05,1.81-2.23,3.49-2.23s2.69,.76,3.13,2.2h.04c.59-1.15,1.97-2.2,3.65-2.2,2.23,0,3.51,1.26,3.51,4.07v6.89h-2.67v-6.38c0-1.22-.23-2.14-1.47-2.14-1.37,0-2.27,1.09-2.58,2.44-.1,.42-.13,.88-.13,1.39v4.7h-2.67v-6.38c0-1.15-.19-2.14-1.45-2.14-1.39,0-2.29,1.09-2.62,2.46-.11,.4-.13,.88-.13,1.36v4.7h-2.67v-10.71Z"/><path class="cls-3" d="M631.21,454.46h2.44v.78c0,.4-.04,.73-.04,.73h.04s.92-1.76,3.44-1.76c2.9,0,4.75,2.29,4.75,5.61s-2.08,5.61-4.89,5.61c-2.12,0-3.07-1.47-3.07-1.47h-.04s.04,.38,.04,.92v4.49h-2.67v-14.91Zm5.25,8.71c1.47,0,2.69-1.2,2.69-3.32s-1.09-3.36-2.67-3.36c-1.39,0-2.69,1.01-2.69,3.38,0,1.66,.9,3.3,2.67,3.3Z"/><path class="cls-3" d="M649.48,458.45h.36v-.15c0-1.41-.88-1.89-2.06-1.89-1.53,0-2.94,1.03-2.94,1.03l-1.01-1.91s1.66-1.32,4.2-1.32c2.81,0,4.45,1.55,4.45,4.26v6.7h-2.46v-.88c0-.42,.04-.76,.04-.76h-.04s-.82,1.89-3.25,1.89c-1.91,0-3.63-1.2-3.63-3.34,0-3.4,4.6-3.63,6.34-3.63Zm-2.04,4.89c1.41,0,2.42-1.51,2.42-2.81v-.25h-.46c-1.37,0-3.57,.19-3.57,1.68,0,.71,.52,1.39,1.62,1.39Z"/><path class="cls-3" d="M655.25,450.26h2.65v2.37h-2.65v-2.37Zm0,4.2h2.67v10.71h-2.67v-10.71Z"/><path class="cls-3" d="M664.91,467.31c1.64,0,3.02-.69,3.02-2.6v-.63c0-.25,.04-.57,.04-.57h-.04c-.63,.94-1.55,1.45-2.98,1.45-3.07,0-4.81-2.48-4.81-5.42s1.66-5.33,4.75-5.33c2.33,0,3.17,1.36,3.17,1.36h.06s-.02-.13-.02-.29v-.82h2.5v10.06c0,3.67-2.86,5.06-5.65,5.06-1.34,0-2.77-.38-3.8-.92l.8-2.04s1.34,.69,2.96,.69Zm3.09-7.75c0-2.44-1.2-3.09-2.65-3.09-1.62,0-2.52,1.18-2.52,2.98s.97,3.25,2.69,3.25c1.28,0,2.48-.73,2.48-3.15Z"/><path class="cls-3" d="M673.55,454.46h2.56v1.24c0,.4-.04,.73-.04,.73h.04c.46-.9,1.64-2.23,3.8-2.23,2.37,0,3.72,1.24,3.72,4.07v6.89h-2.65v-6.34c0-1.3-.34-2.18-1.7-2.18s-2.48,.9-2.88,2.18c-.15,.44-.19,.92-.19,1.43v4.91h-2.67v-10.71Z"/><path class="cls-3" d="M686.73,461.98s1.18,1.18,2.92,1.18c.76,0,1.41-.34,1.41-.97,0-1.6-5.21-1.39-5.21-4.83,0-1.99,1.79-3.15,4.09-3.15s3.59,1.22,3.59,1.22l-.99,1.97s-.99-.92-2.62-.92c-.69,0-1.36,.29-1.36,.97,0,1.51,5.21,1.32,5.21,4.77,0,1.78-1.55,3.21-4.09,3.21-2.67,0-4.16-1.57-4.16-1.57l1.22-1.87Z"/></g></g><g><rect class="cls-2" x="496.52" y="790.67" width="259.58" height="123.52"/><g><path class="cls-3" d="M567.05,832.37h2.71v12.58h6.45v2.33h-9.15v-14.91Z"/><path class="cls-3" d="M582.63,836.32c3.09,0,4.75,2.25,4.75,5.08,0,.31-.06,1.03-.06,1.03h-7.39c.17,1.87,1.62,2.83,3.21,2.83,1.72,0,3.09-1.18,3.09-1.18l1.03,1.91s-1.64,1.53-4.3,1.53c-3.55,0-5.75-2.56-5.75-5.61,0-3.3,2.25-5.61,5.44-5.61Zm2.06,4.28c-.04-1.45-.95-2.23-2.12-2.23-1.36,0-2.31,.84-2.56,2.23h4.68Z"/><path class="cls-3" d="M595.02,840.56h.36v-.15c0-1.41-.88-1.89-2.06-1.89-1.53,0-2.94,1.03-2.94,1.03l-1.01-1.91s1.66-1.32,4.2-1.32c2.81,0,4.45,1.55,4.45,4.26v6.7h-2.46v-.88c0-.42,.04-.76,.04-.76h-.04s-.82,1.89-3.25,1.89c-1.91,0-3.63-1.2-3.63-3.34,0-3.4,4.6-3.63,6.34-3.63Zm-2.04,4.89c1.41,0,2.42-1.51,2.42-2.81v-.25h-.46c-1.37,0-3.57,.19-3.57,1.68,0,.71,.52,1.39,1.62,1.39Z"/><path class="cls-3" d="M604.91,836.32c2.35,0,3.09,1.36,3.09,1.36h.04s-.02-.27-.02-.61v-4.7h2.67v14.91h-2.52v-.88c0-.4,.04-.69,.04-.69h-.04s-.9,1.83-3.36,1.83c-2.9,0-4.75-2.29-4.75-5.61s2.02-5.61,4.85-5.61Zm.5,8.96c1.39,0,2.69-1.01,2.69-3.38,0-1.66-.88-3.3-2.67-3.3-1.47,0-2.69,1.2-2.69,3.32s1.09,3.36,2.67,3.36Z"/><path class="cls-3" d="M619.48,843.46s1.62,1.57,3.72,1.57c1.13,0,2.16-.59,2.16-1.81,0-2.67-7.03-2.2-7.03-6.78,0-2.48,2.14-4.33,5-4.33s4.45,1.6,4.45,1.6l-1.18,2.2s-1.43-1.3-3.3-1.3c-1.26,0-2.25,.74-2.25,1.79,0,2.65,7.01,1.99,7.01,6.76,0,2.37-1.81,4.37-4.91,4.37-3.32,0-5.14-2.04-5.14-2.04l1.47-2.04Z"/><path class="cls-3" d="M635.04,836.32c3.09,0,4.75,2.25,4.75,5.08,0,.31-.06,1.03-.06,1.03h-7.39c.17,1.87,1.62,2.83,3.21,2.83,1.72,0,3.09-1.18,3.09-1.18l1.03,1.91s-1.64,1.53-4.3,1.53c-3.55,0-5.75-2.56-5.75-5.61,0-3.3,2.25-5.61,5.44-5.61Zm2.06,4.28c-.04-1.45-.94-2.23-2.12-2.23-1.37,0-2.31,.84-2.56,2.23h4.68Z"/><path class="cls-3" d="M641.99,836.57h2.56v1.24c0,.4-.04,.74-.04,.74h.04c.46-.9,1.64-2.23,3.8-2.23,2.37,0,3.72,1.24,3.72,4.07v6.89h-2.65v-6.34c0-1.3-.34-2.18-1.7-2.18s-2.48,.9-2.88,2.18c-.15,.44-.19,.92-.19,1.43v4.91h-2.67v-10.71Z"/><path class="cls-3" d="M655.33,838.86h-1.39v-2.12h1.45v-3.09h2.6v3.09h2.44v2.12h-2.44v4.16c0,1.76,1.39,2.02,2.12,2.02,.29,0,.48-.04,.48-.04v2.33s-.31,.06-.82,.06c-1.49,0-4.45-.44-4.45-4.03v-4.49Z"/><path class="cls-3" d="M668.35,838.86h-1.39v-2.12h1.45v-3.09h2.6v3.09h2.44v2.12h-2.44v4.16c0,1.76,1.39,2.02,2.12,2.02,.29,0,.48-.04,.48-.04v2.33s-.32,.06-.82,.06c-1.49,0-4.45-.44-4.45-4.03v-4.49Z"/><path class="cls-3" d="M680.88,836.32c3.28,0,5.9,2.33,5.9,5.61s-2.62,5.61-5.88,5.61-5.9-2.31-5.9-5.61,2.62-5.61,5.88-5.61Zm.02,8.94c1.72,0,3.17-1.34,3.17-3.34s-1.45-3.34-3.17-3.34-3.19,1.36-3.19,3.34,1.45,3.34,3.19,3.34Z"/><path class="cls-3" d="M529.24,857.57h2.71l5.65,8.61c.57,.86,1.24,2.31,1.24,2.31h.04s-.15-1.43-.15-2.31v-8.61h2.69v14.91h-2.69l-5.65-8.59c-.57-.86-1.24-2.31-1.24-2.31h-.04s.15,1.43,.15,2.31v8.59h-2.71v-14.91Z"/><path class="cls-3" d="M544.63,861.77h2.67v6.34c0,1.3,.34,2.18,1.66,2.18,1.93,0,3-1.7,3-3.61v-4.91h2.67v10.71h-2.56v-1.22c0-.42,.04-.76,.04-.76h-.04c-.52,1.11-1.89,2.23-3.72,2.23-2.29,0-3.72-1.15-3.72-4.07v-6.89Z"/><path class="cls-3" d="M557.56,861.77h2.56v1.85c0,.4-.04,.76-.04,.76h.04c.48-1.53,1.76-2.75,3.4-2.75,.25,0,.48,.04,.48,.04v2.62s-.27-.04-.63-.04c-1.13,0-2.41,.65-2.92,2.25-.17,.52-.23,1.11-.23,1.74v4.24h-2.67v-10.71Z"/><path class="cls-3" d="M566.28,864.06h-1.39v-2.12h1.45v-3.09h2.6v3.09h2.44v2.12h-2.44v4.16c0,1.76,1.39,2.02,2.12,2.02,.29,0,.48-.04,.48-.04v2.33s-.31,.06-.82,.06c-1.49,0-4.45-.44-4.45-4.03v-4.49Z"/><path class="cls-3" d="M573.59,861.77h2.67v6.34c0,1.3,.34,2.18,1.66,2.18,1.93,0,3-1.7,3-3.61v-4.91h2.67v10.71h-2.56v-1.22c0-.42,.04-.76,.04-.76h-.04c-.52,1.11-1.89,2.23-3.72,2.23-2.29,0-3.72-1.15-3.72-4.07v-6.89Z"/><path class="cls-3" d="M586.52,861.77h2.56v1.85c0,.4-.04,.76-.04,.76h.04c.48-1.53,1.76-2.75,3.4-2.75,.25,0,.48,.04,.48,.04v2.62s-.27-.04-.63-.04c-1.13,0-2.41,.65-2.92,2.25-.17,.52-.23,1.11-.23,1.74v4.24h-2.67v-10.71Z"/><path class="cls-3" d="M599.46,861.52c3.09,0,4.75,2.25,4.75,5.08,0,.32-.06,1.03-.06,1.03h-7.39c.17,1.87,1.62,2.83,3.21,2.83,1.72,0,3.09-1.18,3.09-1.18l1.03,1.91s-1.64,1.53-4.3,1.53c-3.55,0-5.75-2.56-5.75-5.61,0-3.3,2.25-5.61,5.44-5.61Zm2.06,4.28c-.04-1.45-.94-2.23-2.12-2.23-1.37,0-2.31,.84-2.56,2.23h4.68Z"/><path class="cls-3" d="M623.67,857.32c3.63,0,5.5,2.04,5.5,2.04l-1.3,2.02s-1.7-1.58-4.07-1.58c-3.15,0-5,2.35-5,5.12s1.91,5.33,5.02,5.33c2.58,0,4.33-1.89,4.33-1.89l1.43,1.95s-2.06,2.41-5.86,2.41c-4.56,0-7.71-3.38-7.71-7.77s3.28-7.64,7.66-7.64Z"/><path class="cls-3" d="M637.09,865.76h.36v-.15c0-1.41-.88-1.89-2.06-1.89-1.53,0-2.94,1.03-2.94,1.03l-1.01-1.91s1.66-1.32,4.2-1.32c2.81,0,4.45,1.55,4.45,4.26v6.7h-2.46v-.88c0-.42,.04-.76,.04-.76h-.04s-.82,1.89-3.25,1.89c-1.91,0-3.63-1.2-3.63-3.34,0-3.4,4.6-3.63,6.34-3.63Zm-2.04,4.89c1.41,0,2.42-1.51,2.42-2.81v-.25h-.46c-1.37,0-3.57,.19-3.57,1.68,0,.71,.52,1.39,1.62,1.39Z"/><path class="cls-3" d="M642.87,861.77h2.56v1.24c0,.4-.04,.73-.04,.73h.04c.53-1.05,1.81-2.23,3.49-2.23s2.69,.76,3.13,2.21h.04c.59-1.16,1.97-2.21,3.65-2.21,2.23,0,3.51,1.26,3.51,4.07v6.89h-2.67v-6.38c0-1.22-.23-2.14-1.47-2.14-1.37,0-2.27,1.09-2.58,2.44-.1,.42-.13,.88-.13,1.39v4.7h-2.67v-6.38c0-1.15-.19-2.14-1.45-2.14-1.39,0-2.29,1.09-2.62,2.46-.11,.4-.13,.88-.13,1.36v4.7h-2.67v-10.71Z"/><path class="cls-3" d="M662.04,861.77h2.44v.78c0,.4-.04,.73-.04,.73h.04s.92-1.76,3.44-1.76c2.9,0,4.75,2.29,4.75,5.61s-2.08,5.61-4.89,5.61c-2.12,0-3.07-1.47-3.07-1.47h-.04s.04,.38,.04,.92v4.49h-2.67v-14.91Zm5.25,8.71c1.47,0,2.69-1.2,2.69-3.32s-1.09-3.36-2.67-3.36c-1.39,0-2.69,1.01-2.69,3.38,0,1.66,.9,3.3,2.67,3.3Z"/><path class="cls-3" d="M680.31,865.76h.36v-.15c0-1.41-.88-1.89-2.06-1.89-1.53,0-2.94,1.03-2.94,1.03l-1.01-1.91s1.66-1.32,4.2-1.32c2.81,0,4.45,1.55,4.45,4.26v6.7h-2.46v-.88c0-.42,.04-.76,.04-.76h-.04s-.82,1.89-3.25,1.89c-1.91,0-3.63-1.2-3.63-3.34,0-3.4,4.6-3.63,6.34-3.63Zm-2.04,4.89c1.41,0,2.42-1.51,2.42-2.81v-.25h-.46c-1.37,0-3.57,.19-3.57,1.68,0,.71,.52,1.39,1.62,1.39Z"/><path class="cls-3" d="M686.08,857.57h2.65v2.37h-2.65v-2.37Zm0,4.2h2.67v10.71h-2.67v-10.71Z"/><path class="cls-3" d="M695.74,874.62c1.64,0,3.02-.69,3.02-2.6v-.63c0-.25,.04-.57,.04-.57h-.04c-.63,.94-1.55,1.45-2.98,1.45-3.07,0-4.81-2.48-4.81-5.42s1.66-5.33,4.75-5.33c2.33,0,3.17,1.37,3.17,1.37h.06s-.02-.13-.02-.29v-.82h2.5v10.06c0,3.67-2.86,5.06-5.65,5.06-1.34,0-2.77-.38-3.8-.92l.8-2.04s1.34,.69,2.96,.69Zm3.09-7.75c0-2.44-1.2-3.09-2.65-3.09-1.62,0-2.52,1.18-2.52,2.98s.97,3.25,2.69,3.25c1.28,0,2.48-.74,2.48-3.15Z"/><path class="cls-3" d="M704.37,861.77h2.56v1.24c0,.4-.04,.73-.04,.73h.04c.46-.9,1.64-2.23,3.8-2.23,2.37,0,3.72,1.24,3.72,4.07v6.89h-2.65v-6.34c0-1.3-.34-2.18-1.7-2.18s-2.48,.9-2.88,2.18c-.15,.44-.19,.92-.19,1.43v4.91h-2.67v-10.71Z"/><path class="cls-3" d="M717.56,869.29s1.18,1.18,2.92,1.18c.76,0,1.41-.34,1.41-.97,0-1.6-5.21-1.39-5.21-4.83,0-1.99,1.79-3.15,4.09-3.15s3.59,1.22,3.59,1.22l-.99,1.97s-.99-.92-2.62-.92c-.69,0-1.36,.29-1.36,.97,0,1.51,5.21,1.32,5.21,4.77,0,1.78-1.55,3.21-4.09,3.21-2.67,0-4.16-1.57-4.16-1.57l1.22-1.87Z"/></g></g><g><rect class="cls-1" x="496.52" y="1199.13" width="259.58" height="123.52"/><g><path class="cls-3" d="M557.32,1240.84h2.71v12.58h6.45v2.33h-9.15v-14.91Z"/><path class="cls-3" d="M572.9,1244.78c3.09,0,4.75,2.25,4.75,5.08,0,.31-.06,1.03-.06,1.03h-7.39c.17,1.87,1.62,2.83,3.21,2.83,1.72,0,3.09-1.18,3.09-1.18l1.03,1.91s-1.64,1.53-4.3,1.53c-3.55,0-5.75-2.56-5.75-5.61,0-3.3,2.25-5.61,5.44-5.61Zm2.06,4.28c-.04-1.45-.94-2.23-2.12-2.23-1.37,0-2.31,.84-2.56,2.23h4.68Z"/><path class="cls-3" d="M585.29,1249.02h.36v-.15c0-1.41-.88-1.89-2.06-1.89-1.53,0-2.94,1.03-2.94,1.03l-1.01-1.91s1.66-1.32,4.2-1.32c2.81,0,4.45,1.55,4.45,4.26v6.7h-2.46v-.88c0-.42,.04-.76,.04-.76h-.04s-.82,1.89-3.25,1.89c-1.91,0-3.63-1.2-3.63-3.34,0-3.4,4.6-3.63,6.34-3.63Zm-2.04,4.89c1.41,0,2.41-1.51,2.41-2.81v-.25h-.46c-1.36,0-3.57,.19-3.57,1.68,0,.71,.53,1.39,1.62,1.39Z"/><path class="cls-3" d="M595.18,1244.78c2.35,0,3.09,1.36,3.09,1.36h.04s-.02-.27-.02-.61v-4.7h2.67v14.91h-2.52v-.88c0-.4,.04-.69,.04-.69h-.04s-.9,1.83-3.36,1.83c-2.9,0-4.75-2.29-4.75-5.61s2.02-5.61,4.85-5.61Zm.5,8.96c1.39,0,2.69-1.01,2.69-3.38,0-1.66-.88-3.3-2.67-3.3-1.47,0-2.69,1.2-2.69,3.32s1.09,3.36,2.67,3.36Z"/><path class="cls-3" d="M616.84,1251.92h-5.23l-1.26,3.82h-2.79l5.25-14.91h2.83l5.25,14.91h-2.79l-1.26-3.82Zm-2.62-8.5s-.34,1.47-.63,2.31l-1.32,3.99h3.91l-1.32-3.99c-.27-.84-.59-2.31-.59-2.31h-.04Z"/><path class="cls-3" d="M626.5,1244.78c2.35,0,3.09,1.36,3.09,1.36h.04s-.02-.27-.02-.61v-4.7h2.67v14.91h-2.52v-.88c0-.4,.04-.69,.04-.69h-.04s-.9,1.83-3.36,1.83c-2.9,0-4.75-2.29-4.75-5.61s2.02-5.61,4.85-5.61Zm.5,8.96c1.39,0,2.69-1.01,2.69-3.38,0-1.66-.88-3.3-2.67-3.3-1.47,0-2.69,1.2-2.69,3.32s1.09,3.36,2.67,3.36Z"/><path class="cls-3" d="M639.33,1244.78c2.35,0,3.09,1.36,3.09,1.36h.04s-.02-.27-.02-.61v-4.7h2.67v14.91h-2.52v-.88c0-.4,.04-.69,.04-.69h-.04s-.9,1.83-3.36,1.83c-2.9,0-4.75-2.29-4.75-5.61s2.02-5.61,4.85-5.61Zm.5,8.96c1.39,0,2.69-1.01,2.69-3.38,0-1.66-.88-3.3-2.67-3.3-1.47,0-2.69,1.2-2.69,3.32s1.09,3.36,2.67,3.36Z"/><path class="cls-3" d="M652.72,1244.78c3.09,0,4.75,2.25,4.75,5.08,0,.31-.06,1.03-.06,1.03h-7.39c.17,1.87,1.62,2.83,3.21,2.83,1.72,0,3.09-1.18,3.09-1.18l1.03,1.91s-1.64,1.53-4.3,1.53c-3.55,0-5.75-2.56-5.75-5.61,0-3.3,2.25-5.61,5.44-5.61Zm2.06,4.28c-.04-1.45-.95-2.23-2.12-2.23-1.36,0-2.31,.84-2.56,2.23h4.68Z"/><path class="cls-3" d="M663.79,1244.78c2.35,0,3.09,1.36,3.09,1.36h.04s-.02-.27-.02-.61v-4.7h2.67v14.91h-2.52v-.88c0-.4,.04-.69,.04-.69h-.04s-.9,1.83-3.36,1.83c-2.9,0-4.75-2.29-4.75-5.61s2.02-5.61,4.85-5.61Zm.5,8.96c1.39,0,2.69-1.01,2.69-3.38,0-1.66-.88-3.3-2.67-3.3-1.47,0-2.69,1.2-2.69,3.32s1.09,3.36,2.67,3.36Z"/><path class="cls-3" d="M678.07,1247.32h-1.39v-2.12h1.45v-3.09h2.6v3.09h2.44v2.12h-2.44v4.16c0,1.76,1.39,2.02,2.12,2.02,.29,0,.48-.04,.48-.04v2.33s-.31,.06-.82,.06c-1.49,0-4.45-.44-4.45-4.03v-4.49Z"/><path class="cls-3" d="M690.61,1244.78c3.28,0,5.9,2.33,5.9,5.61s-2.62,5.61-5.88,5.61-5.9-2.31-5.9-5.61,2.62-5.61,5.88-5.61Zm.02,8.94c1.72,0,3.17-1.34,3.17-3.34s-1.45-3.34-3.17-3.34-3.19,1.36-3.19,3.34,1.45,3.34,3.19,3.34Z"/><path class="cls-3" d="M530.12,1266.04h4.81c1.62,0,2.35,.13,3,.42,1.49,.67,2.44,2.1,2.44,4.07,0,1.79-.94,3.44-2.52,4.07v.04s.21,.21,.5,.74l3.07,5.56h-3.02l-2.96-5.56h-2.6v5.56h-2.71v-14.91Zm5.14,6.99c1.45,0,2.35-.86,2.35-2.35s-.61-2.31-2.73-2.31h-2.06v4.66h2.44Z"/><path class="cls-3" d="M548.09,1269.98c3.09,0,4.75,2.25,4.75,5.08,0,.32-.06,1.03-.06,1.03h-7.39c.17,1.87,1.62,2.83,3.21,2.83,1.72,0,3.09-1.18,3.09-1.18l1.03,1.91s-1.64,1.53-4.3,1.53c-3.55,0-5.75-2.56-5.75-5.61,0-3.3,2.25-5.61,5.44-5.61Zm2.06,4.28c-.04-1.45-.95-2.23-2.12-2.23-1.36,0-2.31,.84-2.56,2.23h4.68Z"/><path class="cls-3" d="M555.04,1266.04h2.65v2.37h-2.65v-2.37Zm0,4.2h2.67v10.71h-2.67v-10.71Z"/><path class="cls-3" d="M560.65,1270.23h2.56v1.24c0,.4-.04,.73-.04,.73h.04c.52-1.05,1.81-2.23,3.49-2.23s2.69,.76,3.13,2.21h.04c.59-1.16,1.97-2.21,3.65-2.21,2.23,0,3.51,1.26,3.51,4.07v6.89h-2.67v-6.38c0-1.22-.23-2.14-1.47-2.14-1.36,0-2.27,1.09-2.58,2.44-.11,.42-.13,.88-.13,1.39v4.7h-2.67v-6.38c0-1.15-.19-2.14-1.45-2.14-1.39,0-2.29,1.09-2.62,2.46-.1,.4-.13,.88-.13,1.36v4.7h-2.67v-10.71Z"/><path class="cls-3" d="M579.82,1266.04h2.67v4.6c0,.52-.04,.9-.04,.9h.04s.95-1.55,3.21-1.55c2.9,0,4.75,2.29,4.75,5.61s-2.08,5.61-4.91,5.61c-2.23,0-3.19-1.6-3.19-1.6h-.04s.04,.32,.04,.74v.61h-2.52v-14.91Zm5.25,12.91c1.47,0,2.69-1.2,2.69-3.32s-1.09-3.36-2.67-3.36c-1.39,0-2.69,1.01-2.69,3.38,0,1.66,.88,3.3,2.67,3.3Z"/><path class="cls-3" d="M592.51,1270.23h2.67v6.34c0,1.3,.34,2.18,1.66,2.18,1.93,0,3-1.7,3-3.61v-4.91h2.67v10.71h-2.56v-1.22c0-.42,.04-.76,.04-.76h-.04c-.52,1.11-1.89,2.23-3.72,2.23-2.29,0-3.72-1.15-3.72-4.07v-6.89Z"/><path class="cls-3" d="M605.44,1270.23h2.56v1.85c0,.4-.04,.76-.04,.76h.04c.48-1.53,1.76-2.75,3.4-2.75,.25,0,.48,.04,.48,.04v2.62s-.27-.04-.63-.04c-1.13,0-2.41,.65-2.92,2.25-.17,.52-.23,1.11-.23,1.74v4.24h-2.67v-10.71Z"/><path class="cls-3" d="M614.01,1277.75s1.18,1.18,2.92,1.18c.76,0,1.41-.34,1.41-.97,0-1.6-5.21-1.39-5.21-4.83,0-1.99,1.79-3.15,4.09-3.15s3.59,1.22,3.59,1.22l-.99,1.97s-.99-.92-2.62-.92c-.69,0-1.36,.29-1.36,.97,0,1.51,5.21,1.32,5.21,4.77,0,1.78-1.55,3.21-4.09,3.21-2.67,0-4.16-1.57-4.16-1.57l1.22-1.87Z"/><path class="cls-3" d="M627.87,1269.98c3.09,0,4.75,2.25,4.75,5.08,0,.32-.06,1.03-.06,1.03h-7.39c.17,1.87,1.62,2.83,3.21,2.83,1.72,0,3.09-1.18,3.09-1.18l1.03,1.91s-1.64,1.53-4.3,1.53c-3.55,0-5.75-2.56-5.75-5.61,0-3.3,2.25-5.61,5.44-5.61Zm2.06,4.28c-.04-1.45-.95-2.23-2.12-2.23-1.36,0-2.31,.84-2.56,2.23h4.68Z"/><path class="cls-3" d="M634.82,1270.23h2.56v1.24c0,.4-.04,.73-.04,.73h.04c.53-1.05,1.81-2.23,3.49-2.23s2.69,.76,3.13,2.21h.04c.59-1.16,1.97-2.21,3.65-2.21,2.23,0,3.51,1.26,3.51,4.07v6.89h-2.67v-6.38c0-1.22-.23-2.14-1.47-2.14-1.37,0-2.27,1.09-2.58,2.44-.1,.42-.13,.88-.13,1.39v4.7h-2.67v-6.38c0-1.15-.19-2.14-1.45-2.14-1.39,0-2.29,1.09-2.62,2.46-.11,.4-.13,.88-.13,1.36v4.7h-2.67v-10.71Z"/><path class="cls-3" d="M658.68,1269.98c3.09,0,4.75,2.25,4.75,5.08,0,.32-.06,1.03-.06,1.03h-7.39c.17,1.87,1.62,2.83,3.21,2.83,1.72,0,3.09-1.18,3.09-1.18l1.03,1.91s-1.64,1.53-4.3,1.53c-3.55,0-5.75-2.56-5.75-5.61,0-3.3,2.25-5.61,5.44-5.61Zm2.06,4.28c-.04-1.45-.95-2.23-2.12-2.23-1.36,0-2.31,.84-2.56,2.23h4.68Z"/><path class="cls-3" d="M665.63,1270.23h2.56v1.24c0,.4-.04,.73-.04,.73h.04c.46-.9,1.64-2.23,3.8-2.23,2.37,0,3.72,1.24,3.72,4.07v6.89h-2.65v-6.34c0-1.3-.34-2.18-1.7-2.18s-2.48,.9-2.88,2.18c-.15,.44-.19,.92-.19,1.43v4.91h-2.67v-10.71Z"/><path class="cls-3" d="M678.96,1272.52h-1.39v-2.12h1.45v-3.09h2.6v3.09h2.44v2.12h-2.44v4.16c0,1.76,1.39,2.02,2.12,2.02,.29,0,.48-.04,.48-.04v2.33s-.32,.06-.82,.06c-1.49,0-4.45-.44-4.45-4.03v-4.49Z"/><path class="cls-3" d="M691.94,1266.04h2.71v12.58h6.45v2.33h-9.15v-14.91Z"/><path class="cls-3" d="M702.84,1266.04h2.65v2.37h-2.65v-2.37Zm0,4.2h2.67v10.71h-2.67v-10.71Z"/><path class="cls-3" d="M708.76,1277.75s1.18,1.18,2.92,1.18c.76,0,1.41-.34,1.41-.97,0-1.6-5.21-1.39-5.21-4.83,0-1.99,1.79-3.15,4.09-3.15s3.59,1.22,3.59,1.22l-.99,1.97s-.99-.92-2.62-.92c-.69,0-1.36,.29-1.36,.97,0,1.51,5.21,1.32,5.21,4.77,0,1.78-1.55,3.21-4.09,3.21-2.67,0-4.16-1.57-4.16-1.57l1.22-1.87Z"/><path class="cls-3" d="M718.4,1272.52h-1.39v-2.12h1.45v-3.09h2.6v3.09h2.44v2.12h-2.44v4.16c0,1.76,1.39,2.02,2.12,2.02,.29,0,.48-.04,.48-.04v2.33s-.32,.06-.82,.06c-1.49,0-4.45-.44-4.45-4.03v-4.49Z"/></g></g><g><line class="cls-8" x1="907.77" y1="1028.93" x2="907.77" y2="918.54"/><g><polyline class="cls-7" points="907.77 1082.75 907.77 1260.89 767.4 1260.89"/><polygon class="cls-5" points="769.7 1253.03 756.1 1260.89 769.7 1268.75 769.7 1253.03"/></g></g><g><line class="cls-7" x1="791.06" y1="852.43" x2="756.1" y2="852.43"/><polygon class="cls-5" points="788.77 844.57 802.37 852.43 788.77 860.28 788.77 844.57"/></g><g><g><g><path class="cls-5" d="M378.21,853.64l-4.96-8.67h3.07l2.33,4.39c.48,.92,.88,2.02,.9,1.99h.04s.42-1.07,.9-1.99l2.31-4.39h3.07l-4.96,8.67v6.24h-2.71v-6.24Z"/><path class="cls-5" d="M387.81,844.97h8.92v2.33h-6.21v3.91h5.02v2.33h-5.02v4.01h6.55v2.33h-9.26v-14.91Z"/><path class="cls-5" d="M400.22,856.06s1.62,1.58,3.72,1.58c1.13,0,2.16-.59,2.16-1.81,0-2.67-7.03-2.21-7.03-6.78,0-2.48,2.14-4.33,5-4.33s4.45,1.6,4.45,1.6l-1.18,2.21s-1.43-1.3-3.3-1.3c-1.26,0-2.25,.73-2.25,1.78,0,2.65,7.01,2,7.01,6.76,0,2.37-1.81,4.37-4.91,4.37-3.32,0-5.14-2.04-5.14-2.04l1.47-2.04Z"/></g><rect class="cls-8" x="334.88" y="825.52" width="113.09" height="53.81" rx="9.54" ry="9.54"/></g><line class="cls-8" x1="303.27" y1="852.43" x2="334.88" y2="852.43"/><g><line class="cls-7" x1="485.21" y1="852.43" x2="447.97" y2="852.43"/><polygon class="cls-5" points="482.91 844.57 496.52 852.43 482.91 860.28 482.91 844.57"/></g></g><g><g><g><path class="cls-5" d="M378.21,1262.11l-4.96-8.67h3.07l2.33,4.39c.48,.92,.88,2.02,.9,2h.04s.42-1.07,.9-2l2.31-4.39h3.07l-4.96,8.67v6.24h-2.71v-6.24Z"/><path class="cls-5" d="M387.81,1253.44h8.92v2.33h-6.21v3.91h5.02v2.33h-5.02v4.01h6.55v2.33h-9.26v-14.91Z"/><path class="cls-5" d="M400.22,1264.52s1.62,1.57,3.72,1.57c1.13,0,2.16-.59,2.16-1.81,0-2.67-7.03-2.2-7.03-6.78,0-2.48,2.14-4.33,5-4.33s4.45,1.6,4.45,1.6l-1.18,2.2s-1.43-1.3-3.3-1.3c-1.26,0-2.25,.74-2.25,1.79,0,2.65,7.01,1.99,7.01,6.76,0,2.37-1.81,4.37-4.91,4.37-3.32,0-5.14-2.04-5.14-2.04l1.47-2.04Z"/></g><rect class="cls-8" x="334.88" y="1233.98" width="113.09" height="53.81" rx="9.54" ry="9.54"/></g><line class="cls-8" x1="303.27" y1="1260.89" x2="334.88" y2="1260.89"/><g><line class="cls-7" x1="485.21" y1="1260.89" x2="447.97" y2="1260.89"/><polygon class="cls-5" points="482.91 1253.03 496.52 1260.89 482.91 1268.75 482.91 1253.03"/></g></g><g><rect class="cls-5" x="54.2" y="341.66" width="207.23" height="207.23" transform="translate(-268.63 242.01) rotate(-45)"/><g><path class="cls-3" d="M67.04,398.07h2.92l3.28,9.72c.29,.86,.55,2.18,.57,2.18h.04s.27-1.32,.57-2.18l3.3-9.72h2.9l-5.44,14.91h-2.69l-5.44-14.91Z"/><path class="cls-3" d="M87.09,406.26h.36v-.15c0-1.41-.88-1.89-2.06-1.89-1.53,0-2.94,1.03-2.94,1.03l-1.01-1.91s1.66-1.32,4.2-1.32c2.81,0,4.45,1.55,4.45,4.26v6.7h-2.46v-.88c0-.42,.04-.76,.04-.76h-.04s-.82,1.89-3.25,1.89c-1.91,0-3.63-1.2-3.63-3.34,0-3.4,4.6-3.63,6.34-3.63Zm-2.04,4.89c1.41,0,2.42-1.51,2.42-2.81v-.25h-.46c-1.37,0-3.57,.19-3.57,1.68,0,.71,.52,1.39,1.62,1.39Z"/><path class="cls-3" d="M92.72,398.07h2.65v11.17c0,1.18,.4,1.47,1.09,1.47,.21,0,.4-.02,.4-.02v2.33s-.4,.06-.84,.06c-1.47,0-3.3-.38-3.3-3.44v-11.57Z"/><path class="cls-3" d="M98.83,398.07h2.65v2.37h-2.65v-2.37Zm0,4.2h2.67v10.71h-2.67v-10.71Z"/><path class="cls-3" d="M108.56,402.01c2.35,0,3.09,1.36,3.09,1.36h.04s-.02-.27-.02-.61v-4.7h2.67v14.91h-2.52v-.88c0-.4,.04-.69,.04-.69h-.04s-.9,1.83-3.36,1.83c-2.9,0-4.75-2.29-4.75-5.61s2.02-5.61,4.85-5.61Zm.5,8.97c1.39,0,2.69-1.01,2.69-3.38,0-1.66-.88-3.3-2.67-3.3-1.47,0-2.69,1.2-2.69,3.32s1.09,3.36,2.67,3.36Z"/><path class="cls-3" d="M122.71,406.26h.36v-.15c0-1.41-.88-1.89-2.06-1.89-1.53,0-2.94,1.03-2.94,1.03l-1.01-1.91s1.66-1.32,4.2-1.32c2.81,0,4.45,1.55,4.45,4.26v6.7h-2.46v-.88c0-.42,.04-.76,.04-.76h-.04s-.82,1.89-3.25,1.89c-1.91,0-3.63-1.2-3.63-3.34,0-3.4,4.6-3.63,6.34-3.63Zm-2.04,4.89c1.41,0,2.41-1.51,2.41-2.81v-.25h-.46c-1.36,0-3.57,.19-3.57,1.68,0,.71,.53,1.39,1.62,1.39Z"/><path class="cls-3" d="M128.88,404.56h-1.39v-2.12h1.45v-3.09h2.6v3.09h2.44v2.12h-2.44v4.16c0,1.76,1.39,2.02,2.12,2.02,.29,0,.48-.04,.48-.04v2.33s-.32,.06-.82,.06c-1.49,0-4.45-.44-4.45-4.03v-4.49Z"/><path class="cls-3" d="M136.34,398.07h2.65v2.37h-2.65v-2.37Zm0,4.2h2.67v10.71h-2.67v-10.71Z"/><path class="cls-3" d="M147.03,402.01c3.28,0,5.9,2.33,5.9,5.61s-2.62,5.61-5.88,5.61-5.9-2.31-5.9-5.61,2.62-5.61,5.88-5.61Zm.02,8.94c1.72,0,3.17-1.34,3.17-3.34s-1.45-3.34-3.17-3.34-3.19,1.36-3.19,3.34,1.45,3.34,3.19,3.34Z"/><path class="cls-3" d="M155.07,402.27h2.56v1.24c0,.4-.04,.73-.04,.73h.04c.46-.9,1.64-2.23,3.8-2.23,2.37,0,3.72,1.24,3.72,4.07v6.89h-2.65v-6.34c0-1.3-.34-2.18-1.7-2.18s-2.48,.9-2.88,2.18c-.15,.44-.19,.92-.19,1.43v4.91h-2.67v-10.71Z"/><path class="cls-3" d="M173.47,398.07h4.81c1.62,0,2.35,.13,3,.42,1.49,.67,2.44,2.1,2.44,4.07,0,1.78-.94,3.44-2.52,4.07v.04s.21,.21,.5,.73l3.07,5.56h-3.02l-2.96-5.56h-2.6v5.56h-2.71v-14.91Zm5.14,6.99c1.45,0,2.35-.86,2.35-2.35s-.61-2.31-2.73-2.31h-2.06v4.66h2.44Z"/><path class="cls-3" d="M191.44,402.01c3.09,0,4.75,2.25,4.75,5.08,0,.31-.06,1.03-.06,1.03h-7.39c.17,1.87,1.62,2.83,3.21,2.83,1.72,0,3.09-1.18,3.09-1.18l1.03,1.91s-1.64,1.53-4.3,1.53c-3.55,0-5.75-2.56-5.75-5.61,0-3.3,2.25-5.61,5.44-5.61Zm2.06,4.28c-.04-1.45-.95-2.23-2.12-2.23-1.36,0-2.31,.84-2.56,2.23h4.68Z"/><path class="cls-3" d="M198.71,409.78s1.18,1.18,2.92,1.18c.76,0,1.41-.34,1.41-.97,0-1.6-5.21-1.39-5.21-4.83,0-1.99,1.78-3.15,4.09-3.15s3.59,1.22,3.59,1.22l-.99,1.97s-.99-.92-2.62-.92c-.69,0-1.37,.29-1.37,.97,0,1.51,5.21,1.32,5.21,4.77,0,1.78-1.55,3.21-4.09,3.21-2.67,0-4.16-1.57-4.16-1.57l1.22-1.87Z"/><path class="cls-3" d="M207.74,402.27h2.67v6.34c0,1.3,.34,2.18,1.66,2.18,1.93,0,3-1.7,3-3.61v-4.91h2.67v10.71h-2.56v-1.22c0-.42,.04-.76,.04-.76h-.04c-.52,1.11-1.89,2.23-3.72,2.23-2.29,0-3.72-1.15-3.72-4.07v-6.89Z"/><path class="cls-3" d="M220.53,398.07h2.65v11.17c0,1.18,.4,1.47,1.09,1.47,.21,0,.4-.02,.4-.02v2.33s-.4,.06-.84,.06c-1.47,0-3.3-.38-3.3-3.44v-11.57Z"/><path class="cls-3" d="M227.04,404.56h-1.39v-2.12h1.45v-3.09h2.6v3.09h2.44v2.12h-2.44v4.16c0,1.76,1.39,2.02,2.12,2.02,.29,0,.48-.04,.48-.04v2.33s-.32,.06-.82,.06c-1.49,0-4.45-.44-4.45-4.03v-4.49Z"/><path class="cls-3" d="M234.81,409.78s1.18,1.18,2.92,1.18c.76,0,1.41-.34,1.41-.97,0-1.6-5.21-1.39-5.21-4.83,0-1.99,1.78-3.15,4.09-3.15s3.59,1.22,3.59,1.22l-.99,1.97s-.99-.92-2.62-.92c-.69,0-1.37,.29-1.37,.97,0,1.51,5.21,1.32,5.21,4.77,0,1.78-1.55,3.21-4.09,3.21-2.67,0-4.16-1.57-4.16-1.57l1.22-1.87Z"/><path class="cls-3" d="M244.22,402.27h2.65v2.67h-2.65v-2.67Zm0,8.04h2.65v2.67h-2.65v-2.67Z"/><path class="cls-3" d="M59.53,429.39c3.78,0,6.8,2.98,6.8,6.82s-3.02,6.99-6.8,6.99-6.8-3.08-6.8-6.99,3.02-6.82,6.8-6.82Zm0,12.59c3,0,5.43-2.51,5.43-5.77s-2.43-5.6-5.43-5.6-5.43,2.41-5.43,5.6,2.41,5.77,5.43,5.77Z"/><path class="cls-3" d="M67.6,433.42h1.37l2.66,7.01c.17,.48,.32,1.14,.32,1.14h.04s.15-.65,.34-1.14l2.64-7.01h1.35l-3.65,9.56h-1.41l-3.67-9.56Z"/><path class="cls-3" d="M82.17,433.19c2.64,0,3.99,2.03,3.99,4.41,0,.23-.04,.67-.04,.67h-7.33c.06,2.45,1.73,3.78,3.7,3.78,1.75,0,2.91-1.16,2.91-1.16l.59,.99s-1.39,1.33-3.53,1.33c-2.85,0-5-2.05-5-5,0-3.13,2.13-5.01,4.71-5.01Zm2.68,4.01c-.08-1.99-1.29-2.93-2.72-2.93-1.6,0-2.98,1.01-3.29,2.93h6Z"/><path class="cls-3" d="M88.63,433.42h1.27v1.69c0,.42-.04,.76-.04,.76h.04c.46-1.44,1.52-2.55,3.02-2.55,.27,0,.51,.06,.51,.06v1.27s-.23-.04-.48-.04c-1.35,0-2.36,1.06-2.77,2.47-.19,.61-.27,1.25-.27,1.86v4.03h-1.29v-9.56Z"/><path class="cls-3" d="M100.47,437.07h.53v-.25c0-1.84-1.01-2.47-2.38-2.47-1.58,0-2.7,.91-2.7,.91l-.61-.99s1.25-1.08,3.4-1.08c2.3,0,3.57,1.27,3.57,3.67v6.12h-1.23v-1.04c0-.47,.04-.8,.04-.8h-.04s-.8,2.07-3.19,2.07c-1.6,0-3.25-.93-3.25-2.83,0-3.23,4.2-3.31,5.85-3.31Zm-2.39,5.03c1.82,0,2.93-1.9,2.93-3.55v-.42h-.55c-1.5,0-4.5,.06-4.5,2.17,0,.89,.7,1.8,2.13,1.8Z"/><path class="cls-3" d="M105.18,429.62h1.29v10.81c0,1.25,.57,1.44,1.06,1.44,.17,0,.32-.02,.32-.02v1.16s-.23,.04-.48,.04c-.8,0-2.2-.25-2.2-2.34v-11.09Z"/><path class="cls-3" d="M109.88,429.62h1.29v10.81c0,1.25,.57,1.44,1.06,1.44,.17,0,.32-.02,.32-.02v1.16s-.23,.04-.47,.04c-.8,0-2.2-.25-2.2-2.34v-11.09Z"/><path class="cls-3" d="M126.01,429.39c3.84,0,6.84,2.98,6.84,6.82,0,1.77-.65,3.4-1.67,4.6l1.65,1.65-.8,.82-1.63-1.65c-1.18,1.01-2.7,1.58-4.39,1.58-3.78,0-6.76-3.1-6.76-6.99s2.98-6.82,6.76-6.82Zm0,12.59c1.22,0,2.55-.47,3.46-1.25l-1.63-1.67,.8-.82,1.61,1.65c.76-.97,1.24-2.3,1.24-3.69,0-3.19-2.39-5.6-5.47-5.6s-5.4,2.41-5.4,5.6,2.36,5.77,5.4,5.77Z"/><path class="cls-3" d="M135.51,433.42h1.29v5.74c0,1.5,.23,2.83,2.07,2.83,2.18,0,3.53-1.92,3.53-3.99v-4.58h1.29v9.56h-1.25v-1.42c0-.42,.04-.76,.04-.76h-.04c-.38,.93-1.63,2.41-3.74,2.41-2.24,0-3.19-1.22-3.19-3.7v-6.08Z"/><path class="cls-3" d="M151.88,437.07h.53v-.25c0-1.84-1.01-2.47-2.38-2.47-1.58,0-2.7,.91-2.7,.91l-.61-.99s1.25-1.08,3.4-1.08c2.3,0,3.57,1.27,3.57,3.67v6.12h-1.24v-1.04c0-.47,.04-.8,.04-.8h-.04s-.8,2.07-3.19,2.07c-1.6,0-3.25-.93-3.25-2.83,0-3.23,4.2-3.31,5.85-3.31Zm-2.39,5.03c1.82,0,2.93-1.9,2.93-3.55v-.42h-.55c-1.5,0-4.5,.06-4.5,2.17,0,.89,.7,1.8,2.13,1.8Z"/><path class="cls-3" d="M156.6,429.62h1.29v10.81c0,1.25,.57,1.44,1.06,1.44,.17,0,.32-.02,.32-.02v1.16s-.23,.04-.48,.04c-.8,0-2.2-.25-2.2-2.34v-11.09Z"/><path class="cls-3" d="M161.35,429.62h1.35v1.62h-1.35v-1.62Zm.04,3.8h1.29v9.56h-1.29v-9.56Z"/><path class="cls-3" d="M166.15,434.62h-1.25v-1.08h1.27v-2.75h1.27v2.75h2.39v1.08h-2.39v4.75c0,2.24,1.42,2.53,2.15,2.53,.27,0,.44-.04,.44-.04v1.16s-.21,.04-.55,.04c-1.1,0-3.32-.36-3.32-3.55v-4.88Z"/><path class="cls-3" d="M171.23,445.37s.53,.44,1.14,.44c.84,0,1.42-.68,1.8-1.56l.59-1.35-3.99-9.48h1.42l2.81,6.97c.19,.48,.34,1.01,.34,1.01h.04s.13-.53,.32-1.01l2.75-6.97h1.41l-4.71,11.55c-.49,1.22-1.48,1.99-2.75,1.99-.99,0-1.67-.57-1.67-.57l.49-1.03Z"/><path class="cls-3" d="M187.26,435.38h8.85v1.1h-8.85v-1.1Zm0,3.31h8.85v1.1h-8.85v-1.1Z"/><path class="cls-3" d="M211.83,438.72h-5.38l-1.52,4.25h-1.39l4.9-13.36h1.41l4.9,13.36h-1.39l-1.54-4.25Zm-2.7-7.71s-.28,1.1-.51,1.73l-1.79,4.84h4.6l-1.75-4.84c-.23-.63-.51-1.73-.51-1.73h-.04Z"/><path class="cls-3" d="M220.91,433.19c2.34,0,3.5,1.37,3.5,1.37l-.67,.97s-1.06-1.16-2.79-1.16c-2.09,0-3.72,1.56-3.72,3.84s1.65,3.84,3.76,3.84c1.94,0,3.06-1.35,3.06-1.35l.59,1.01s-1.29,1.5-3.72,1.5c-2.83,0-5.02-2.03-5.02-5s2.2-5.01,5.02-5.01Z"/><path class="cls-3" d="M231.34,433.19c2.34,0,3.5,1.37,3.5,1.37l-.67,.97s-1.06-1.16-2.79-1.16c-2.09,0-3.72,1.56-3.72,3.84s1.65,3.84,3.76,3.84c1.94,0,3.06-1.35,3.06-1.35l.59,1.01s-1.29,1.5-3.72,1.5c-2.83,0-5.01-2.03-5.01-5s2.2-5.01,5.01-5.01Z"/><path class="cls-3" d="M241.47,433.19c2.64,0,3.99,2.03,3.99,4.41,0,.23-.04,.67-.04,.67h-7.33c.06,2.45,1.73,3.78,3.71,3.78,1.75,0,2.91-1.16,2.91-1.16l.59,.99s-1.39,1.33-3.53,1.33c-2.85,0-5-2.05-5-5,0-3.13,2.13-5.01,4.71-5.01Zm2.68,4.01c-.08-1.99-1.29-2.93-2.72-2.93-1.6,0-2.98,1.01-3.29,2.93h6Z"/><path class="cls-3" d="M247.93,433.42h1.24v.93c0,.42-.04,.74-.04,.74h.04s.78-1.9,3.3-1.9,4.16,2.05,4.16,5.01-1.8,5-4.27,5c-2.3,0-3.13-1.82-3.13-1.82h-.04s.04,.34,.04,.84v4.56h-1.29v-13.36Zm4.29,8.64c1.69,0,3.08-1.42,3.08-3.86s-1.23-3.84-3.02-3.84c-1.6,0-3.1,1.14-3.1,3.86,0,1.92,1.06,3.84,3.04,3.84Z"/><path class="cls-3" d="M259.48,434.62h-1.25v-1.08h1.27v-2.75h1.27v2.75h2.39v1.08h-2.39v4.75c0,2.24,1.42,2.53,2.15,2.53,.27,0,.44-.04,.44-.04v1.16s-.21,.04-.55,.04c-1.1,0-3.32-.36-3.32-3.55v-4.88Z"/><path class="cls-3" d="M56.23,452.42h4.62c2.39,0,4.12,1.56,4.12,4.03s-1.73,4.08-4.12,4.08h-3.31v5.24h-1.31v-13.36Zm4.45,6.93c1.79,0,2.94-1.08,2.94-2.91s-1.16-2.85-2.93-2.85h-3.15v5.76h3.13Z"/><path class="cls-3" d="M67.21,452.42h1.29v5.17c0,.44-.04,.78-.04,.78h.04c.36-.91,1.63-2.37,3.8-2.37,2.36,0,3.19,1.35,3.19,3.7v6.08h-1.29v-5.74c0-1.5-.23-2.83-2.07-2.83-1.63,0-3.04,1.12-3.48,2.72-.11,.38-.15,.82-.15,1.27v4.58h-1.29v-13.36Z"/><path class="cls-3" d="M82.83,455.99c2.79,0,5.05,2.13,5.05,4.96s-2.26,5.05-5.05,5.05-5.05-2.17-5.05-5.05,2.26-4.96,5.05-4.96Zm0,8.85c2.05,0,3.72-1.67,3.72-3.89s-1.67-3.78-3.72-3.78-3.72,1.61-3.72,3.78,1.67,3.89,3.72,3.89Z"/><path class="cls-3" d="M90.3,456.22h1.27v1.42c0,.42-.04,.76-.04,.76h.04c.34-.87,1.56-2.41,3.82-2.41s3.19,1.35,3.19,3.7v6.08h-1.29v-5.74c0-1.5-.23-2.83-2.07-2.83-1.63,0-3.04,1.12-3.48,2.7-.11,.4-.15,.84-.15,1.29v4.58h-1.29v-9.56Z"/><path class="cls-3" d="M105.61,455.99c2.64,0,3.99,2.03,3.99,4.41,0,.23-.04,.67-.04,.67h-7.33c.06,2.45,1.73,3.78,3.71,3.78,1.75,0,2.91-1.16,2.91-1.16l.59,.99s-1.39,1.33-3.53,1.33c-2.85,0-5-2.05-5-5,0-3.13,2.13-5.01,4.71-5.01Zm2.68,4.01c-.08-1.99-1.29-2.93-2.72-2.93-1.6,0-2.98,1.01-3.29,2.93h6Z"/><path class="cls-3" d="M123.41,452.19c3.84,0,6.84,2.98,6.84,6.82,0,1.77-.65,3.4-1.67,4.6l1.65,1.65-.8,.82-1.63-1.65c-1.18,1.01-2.7,1.58-4.39,1.58-3.78,0-6.76-3.1-6.76-6.99s2.98-6.82,6.76-6.82Zm0,12.59c1.22,0,2.54-.47,3.46-1.25l-1.63-1.67,.8-.82,1.62,1.65c.76-.97,1.23-2.3,1.23-3.69,0-3.19-2.39-5.6-5.47-5.6s-5.4,2.41-5.4,5.6,2.36,5.77,5.4,5.77Z"/><path class="cls-3" d="M132.91,456.22h1.29v5.74c0,1.5,.23,2.83,2.07,2.83,2.19,0,3.53-1.92,3.53-3.99v-4.58h1.29v9.56h-1.25v-1.42c0-.42,.04-.76,.04-.76h-.04c-.38,.93-1.63,2.41-3.74,2.41-2.24,0-3.19-1.22-3.19-3.7v-6.08Z"/><path class="cls-3" d="M149.29,459.87h.53v-.25c0-1.84-1.01-2.47-2.38-2.47-1.58,0-2.7,.91-2.7,.91l-.61-.99s1.25-1.08,3.4-1.08c2.3,0,3.57,1.27,3.57,3.67v6.12h-1.24v-1.04c0-.47,.04-.8,.04-.8h-.04s-.8,2.07-3.19,2.07c-1.6,0-3.25-.93-3.25-2.83,0-3.23,4.2-3.31,5.85-3.31Zm-2.39,5.03c1.82,0,2.93-1.9,2.93-3.55v-.42h-.55c-1.5,0-4.5,.06-4.5,2.17,0,.89,.7,1.8,2.13,1.8Z"/><path class="cls-3" d="M154,452.42h1.29v10.81c0,1.25,.57,1.44,1.06,1.44,.17,0,.32-.02,.32-.02v1.16s-.23,.04-.47,.04c-.8,0-2.2-.25-2.2-2.34v-11.09Z"/><path class="cls-3" d="M158.75,452.42h1.35v1.62h-1.35v-1.62Zm.04,3.8h1.29v9.56h-1.29v-9.56Z"/><path class="cls-3" d="M163.56,457.42h-1.25v-1.08h1.27v-2.75h1.27v2.75h2.39v1.08h-2.39v4.75c0,2.24,1.42,2.53,2.15,2.53,.27,0,.44-.04,.44-.04v1.16s-.21,.04-.55,.04c-1.1,0-3.32-.36-3.32-3.55v-4.88Z"/><path class="cls-3" d="M168.63,468.17s.53,.44,1.14,.44c.84,0,1.42-.68,1.8-1.56l.59-1.35-3.99-9.48h1.42l2.81,6.97c.19,.48,.34,1.01,.34,1.01h.04s.13-.53,.32-1.01l2.75-6.97h1.41l-4.71,11.55c-.49,1.22-1.48,1.99-2.75,1.99-.99,0-1.67-.57-1.67-.57l.49-1.03Z"/><path class="cls-3" d="M184.67,458.18h8.85v1.1h-8.85v-1.1Zm0,3.31h8.85v1.1h-8.85v-1.1Z"/><path class="cls-3" d="M209.23,461.52h-5.38l-1.52,4.26h-1.39l4.9-13.36h1.41l4.9,13.36h-1.39l-1.54-4.26Zm-2.7-7.71s-.28,1.1-.51,1.73l-1.79,4.84h4.6l-1.75-4.84c-.23-.63-.51-1.73-.51-1.73h-.04Z"/><path class="cls-3" d="M218.32,455.99c2.34,0,3.5,1.37,3.5,1.37l-.67,.97s-1.06-1.16-2.79-1.16c-2.09,0-3.72,1.56-3.72,3.84s1.65,3.84,3.76,3.84c1.94,0,3.06-1.35,3.06-1.35l.59,1.01s-1.29,1.5-3.72,1.5c-2.83,0-5.01-2.03-5.01-5s2.2-5.01,5.01-5.01Z"/><path class="cls-3" d="M228.75,455.99c2.34,0,3.5,1.37,3.5,1.37l-.67,.97s-1.06-1.16-2.79-1.16c-2.09,0-3.72,1.56-3.72,3.84s1.65,3.84,3.76,3.84c1.94,0,3.06-1.35,3.06-1.35l.59,1.01s-1.29,1.5-3.72,1.5c-2.83,0-5.02-2.03-5.02-5s2.2-5.01,5.02-5.01Z"/><path class="cls-3" d="M238.87,455.99c2.64,0,3.99,2.03,3.99,4.41,0,.23-.04,.67-.04,.67h-7.33c.06,2.45,1.73,3.78,3.7,3.78,1.75,0,2.91-1.16,2.91-1.16l.59,.99s-1.39,1.33-3.53,1.33c-2.85,0-5-2.05-5-5,0-3.13,2.13-5.01,4.71-5.01Zm2.68,4.01c-.08-1.99-1.29-2.93-2.72-2.93-1.6,0-2.98,1.01-3.29,2.93h6Z"/><path class="cls-3" d="M245.34,456.22h1.23v.93c0,.42-.04,.74-.04,.74h.04s.78-1.9,3.31-1.9,4.16,2.05,4.16,5.01-1.8,5-4.27,5c-2.3,0-3.13-1.82-3.13-1.82h-.04s.04,.34,.04,.84v4.56h-1.29v-13.36Zm4.29,8.64c1.69,0,3.08-1.42,3.08-3.86s-1.23-3.84-3.02-3.84c-1.59,0-3.1,1.14-3.1,3.86,0,1.92,1.06,3.84,3.04,3.84Z"/><path class="cls-3" d="M256.89,457.42h-1.25v-1.08h1.27v-2.75h1.27v2.75h2.39v1.08h-2.39v4.75c0,2.24,1.42,2.53,2.15,2.53,.27,0,.44-.04,.44-.04v1.16s-.21,.04-.55,.04c-1.1,0-3.32-.36-3.32-3.55v-4.88Z"/><path class="cls-3" d="M60.72,475.22h7.52v1.18h-6.21v4.86h5.07v1.18h-5.07v4.96h6.55v1.18h-7.87v-13.36Z"/><path class="cls-3" d="M71.19,479.02h1.27v1.42c0,.42-.04,.76-.04,.76h.04c.46-1.29,1.98-2.41,3.46-2.41,1.77,0,2.68,.82,2.96,2.39h.04c.51-1.29,1.9-2.39,3.51-2.39,2.32,0,3.17,1.35,3.17,3.7v6.08h-1.29v-5.76c0-1.56-.32-2.85-2.07-2.85-1.46,0-2.66,1.29-3.02,2.7-.13,.42-.17,.87-.17,1.39v4.52h-1.29v-5.76c0-1.44-.21-2.85-2.01-2.85-1.56,0-2.74,1.35-3.13,2.81-.09,.4-.13,.84-.13,1.27v4.52h-1.29v-9.56Z"/><path class="cls-3" d="M93.67,482.67h.53v-.25c0-1.84-1.01-2.47-2.38-2.47-1.58,0-2.7,.91-2.7,.91l-.61-.99s1.25-1.08,3.4-1.08c2.3,0,3.57,1.27,3.57,3.67v6.12h-1.23v-1.04c0-.47,.04-.8,.04-.8h-.04s-.8,2.07-3.19,2.07c-1.6,0-3.25-.93-3.25-2.83,0-3.23,4.2-3.31,5.85-3.31Zm-2.39,5.03c1.82,0,2.93-1.9,2.93-3.55v-.42h-.55c-1.5,0-4.5,.06-4.5,2.17,0,.89,.7,1.8,2.13,1.8Z"/><path class="cls-3" d="M98.44,475.22h1.35v1.62h-1.35v-1.62Zm.04,3.8h1.29v9.56h-1.29v-9.56Z"/><path class="cls-3" d="M102.79,475.22h1.29v10.81c0,1.25,.57,1.44,1.06,1.44,.17,0,.32-.02,.32-.02v1.16s-.23,.04-.47,.04c-.8,0-2.2-.25-2.2-2.34v-11.09Z"/><path class="cls-3" d="M118.92,474.99c3.84,0,6.84,2.98,6.84,6.82,0,1.77-.65,3.4-1.67,4.6l1.65,1.65-.8,.82-1.63-1.65c-1.18,1.01-2.7,1.58-4.39,1.58-3.78,0-6.76-3.1-6.76-6.99s2.98-6.82,6.76-6.82Zm0,12.59c1.22,0,2.55-.47,3.46-1.25l-1.63-1.67,.8-.82,1.61,1.65c.76-.97,1.24-2.3,1.24-3.69,0-3.19-2.39-5.6-5.47-5.6s-5.4,2.41-5.4,5.6,2.36,5.77,5.4,5.77Z"/><path class="cls-3" d="M128.42,479.02h1.29v5.74c0,1.5,.23,2.83,2.07,2.83,2.18,0,3.53-1.92,3.53-3.99v-4.58h1.29v9.56h-1.25v-1.42c0-.42,.04-.76,.04-.76h-.04c-.38,.93-1.63,2.41-3.74,2.41-2.24,0-3.19-1.22-3.19-3.7v-6.08Z"/><path class="cls-3" d="M144.8,482.67h.53v-.25c0-1.84-1.01-2.47-2.38-2.47-1.58,0-2.7,.91-2.7,.91l-.61-.99s1.25-1.08,3.4-1.08c2.3,0,3.57,1.27,3.57,3.67v6.12h-1.23v-1.04c0-.47,.04-.8,.04-.8h-.04s-.8,2.07-3.19,2.07c-1.6,0-3.25-.93-3.25-2.83,0-3.23,4.2-3.31,5.85-3.31Zm-2.39,5.03c1.82,0,2.93-1.9,2.93-3.55v-.42h-.55c-1.5,0-4.5,.06-4.5,2.17,0,.89,.7,1.8,2.13,1.8Z"/><path class="cls-3" d="M149.51,475.22h1.29v10.81c0,1.25,.57,1.44,1.06,1.44,.17,0,.32-.02,.32-.02v1.16s-.23,.04-.48,.04c-.8,0-2.2-.25-2.2-2.34v-11.09Z"/><path class="cls-3" d="M154.26,475.22h1.35v1.62h-1.35v-1.62Zm.04,3.8h1.29v9.56h-1.29v-9.56Z"/><path class="cls-3" d="M159.07,480.22h-1.25v-1.08h1.27v-2.75h1.27v2.75h2.39v1.08h-2.39v4.75c0,2.24,1.42,2.53,2.15,2.53,.27,0,.44-.04,.44-.04v1.16s-.21,.04-.55,.04c-1.1,0-3.32-.36-3.32-3.55v-4.88Z"/><path class="cls-3" d="M164.14,490.97s.53,.44,1.14,.44c.84,0,1.42-.68,1.8-1.56l.59-1.35-3.99-9.48h1.42l2.81,6.97c.19,.48,.34,1.01,.34,1.01h.04s.13-.53,.32-1.01l2.75-6.97h1.41l-4.71,11.55c-.49,1.22-1.48,1.99-2.75,1.99-.99,0-1.67-.57-1.67-.57l.49-1.03Z"/><path class="cls-3" d="M180.17,480.98h8.85v1.1h-8.85v-1.1Zm0,3.31h8.85v1.1h-8.85v-1.1Z"/><path class="cls-3" d="M204.74,484.32h-5.38l-1.52,4.25h-1.39l4.9-13.36h1.41l4.9,13.36h-1.39l-1.54-4.25Zm-2.7-7.71s-.29,1.1-.51,1.73l-1.79,4.84h4.6l-1.75-4.84c-.23-.63-.51-1.73-.51-1.73h-.04Z"/><path class="cls-3" d="M213.82,478.79c2.34,0,3.5,1.37,3.5,1.37l-.67,.97s-1.06-1.16-2.79-1.16c-2.09,0-3.72,1.56-3.72,3.84s1.65,3.84,3.76,3.84c1.94,0,3.06-1.35,3.06-1.35l.59,1.01s-1.29,1.5-3.72,1.5c-2.83,0-5.02-2.03-5.02-5s2.2-5.01,5.02-5.01Z"/><path class="cls-3" d="M224.25,478.79c2.34,0,3.5,1.37,3.5,1.37l-.67,.97s-1.06-1.16-2.79-1.16c-2.09,0-3.72,1.56-3.72,3.84s1.65,3.84,3.76,3.84c1.94,0,3.06-1.35,3.06-1.35l.59,1.01s-1.29,1.5-3.72,1.5c-2.83,0-5.01-2.03-5.01-5s2.2-5.01,5.01-5.01Z"/><path class="cls-3" d="M234.38,478.79c2.64,0,3.99,2.03,3.99,4.41,0,.23-.04,.67-.04,.67h-7.33c.06,2.45,1.73,3.78,3.71,3.78,1.75,0,2.91-1.16,2.91-1.16l.59,.99s-1.39,1.33-3.53,1.33c-2.85,0-5-2.05-5-5,0-3.13,2.13-5.01,4.71-5.01Zm2.68,4.01c-.08-1.99-1.29-2.93-2.72-2.93-1.6,0-2.98,1.01-3.29,2.93h6Z"/><path class="cls-3" d="M240.84,479.02h1.24v.93c0,.42-.04,.74-.04,.74h.04s.78-1.9,3.31-1.9,4.16,2.05,4.16,5.01-1.8,5-4.27,5c-2.3,0-3.13-1.82-3.13-1.82h-.04s.04,.34,.04,.84v4.56h-1.29v-13.36Zm4.29,8.64c1.69,0,3.08-1.42,3.08-3.86s-1.23-3.84-3.02-3.84c-1.6,0-3.1,1.14-3.1,3.86,0,1.92,1.06,3.84,3.04,3.84Z"/><path class="cls-3" d="M252.39,480.22h-1.25v-1.08h1.27v-2.75h1.27v2.75h2.39v1.08h-2.39v4.75c0,2.24,1.42,2.53,2.15,2.53,.27,0,.44-.04,.44-.04v1.16s-.21,.04-.55,.04c-1.1,0-3.32-.36-3.32-3.55v-4.88Z"/></g></g><g><rect class="cls-5" x="54.2" y="748.78" width="207.23" height="207.23" transform="translate(-556.51 361.25) rotate(-45)"/><g><path class="cls-3" d="M60.28,821.58h8.92v2.33h-6.21v3.91h5.02v2.33h-5.02v4.01h6.55v2.33h-9.26v-14.91Z"/><path class="cls-3" d="M71.94,825.77h2.56v1.24c0,.4-.04,.74-.04,.74h.04c.52-1.05,1.81-2.23,3.49-2.23s2.69,.76,3.13,2.2h.04c.59-1.15,1.97-2.2,3.65-2.2,2.23,0,3.51,1.26,3.51,4.07v6.89h-2.67v-6.38c0-1.22-.23-2.14-1.47-2.14-1.36,0-2.27,1.09-2.58,2.44-.1,.42-.13,.88-.13,1.39v4.7h-2.67v-6.38c0-1.16-.19-2.14-1.45-2.14-1.39,0-2.29,1.09-2.62,2.46-.1,.4-.13,.88-.13,1.37v4.7h-2.67v-10.71Z"/><path class="cls-3" d="M96.55,829.76h.36v-.15c0-1.41-.88-1.89-2.06-1.89-1.53,0-2.94,1.03-2.94,1.03l-1.01-1.91s1.66-1.32,4.2-1.32c2.81,0,4.45,1.55,4.45,4.26v6.7h-2.46v-.88c0-.42,.04-.76,.04-.76h-.04s-.82,1.89-3.25,1.89c-1.91,0-3.63-1.2-3.63-3.34,0-3.4,4.6-3.63,6.34-3.63Zm-2.04,4.89c1.41,0,2.41-1.51,2.41-2.81v-.25h-.46c-1.36,0-3.57,.19-3.57,1.68,0,.71,.52,1.39,1.62,1.39Z"/><path class="cls-3" d="M102.32,821.58h2.65v2.37h-2.65v-2.37Zm0,4.2h2.67v10.71h-2.67v-10.71Z"/><path class="cls-3" d="M107.78,821.58h2.65v11.17c0,1.18,.4,1.47,1.09,1.47,.21,0,.4-.02,.4-.02v2.33s-.4,.06-.84,.06c-1.47,0-3.3-.38-3.3-3.44v-11.57Z"/><path class="cls-3" d="M126.07,821.32c4.41,0,7.73,3.34,7.73,7.62,0,1.81-.65,3.42-1.64,4.72l1.68,1.51-1.55,1.72-1.66-1.64c-1.24,.94-2.81,1.47-4.56,1.47-4.37,0-7.68-3.44-7.68-7.79s3.32-7.62,7.68-7.62Zm0,12.93c.9,0,1.89-.29,2.6-.78l-1.66-1.57,1.55-1.7,1.62,1.62c.5-.82,.82-1.83,.82-2.88,0-2.96-2.16-5.14-4.93-5.14s-4.89,2.18-4.89,5.14,2.16,5.31,4.89,5.31Z"/><path class="cls-3" d="M136.19,825.77h2.67v6.34c0,1.3,.34,2.18,1.66,2.18,1.93,0,3-1.7,3-3.61v-4.91h2.67v10.71h-2.56v-1.22c0-.42,.04-.76,.04-.76h-.04c-.52,1.11-1.89,2.23-3.72,2.23-2.29,0-3.72-1.16-3.72-4.07v-6.89Z"/><path class="cls-3" d="M154.57,829.76h.36v-.15c0-1.41-.88-1.89-2.06-1.89-1.53,0-2.94,1.03-2.94,1.03l-1.01-1.91s1.66-1.32,4.2-1.32c2.81,0,4.45,1.55,4.45,4.26v6.7h-2.46v-.88c0-.42,.04-.76,.04-.76h-.04s-.82,1.89-3.25,1.89c-1.91,0-3.63-1.2-3.63-3.34,0-3.4,4.6-3.63,6.34-3.63Zm-2.04,4.89c1.41,0,2.41-1.51,2.41-2.81v-.25h-.46c-1.36,0-3.57,.19-3.57,1.68,0,.71,.52,1.39,1.62,1.39Z"/><path class="cls-3" d="M160.2,821.58h2.65v11.17c0,1.18,.4,1.47,1.09,1.47,.21,0,.4-.02,.4-.02v2.33s-.4,.06-.84,.06c-1.47,0-3.3-.38-3.3-3.44v-11.57Z"/><path class="cls-3" d="M166.31,821.58h2.65v2.37h-2.65v-2.37Zm0,4.2h2.67v10.71h-2.67v-10.71Z"/><path class="cls-3" d="M172.38,828.06h-1.39v-2.12h1.45v-3.09h2.6v3.09h2.44v2.12h-2.44v4.16c0,1.76,1.39,2.02,2.12,2.02,.29,0,.48-.04,.48-.04v2.33s-.31,.06-.82,.06c-1.49,0-4.45-.44-4.45-4.03v-4.49Z"/><path class="cls-3" d="M179.27,838.2s.59,.44,1.2,.44c.73,0,1.45-.44,1.85-1.39l.4-.94-4.51-10.54h3l2.25,6.17c.21,.57,.4,1.45,.4,1.45h.04s.17-.84,.36-1.41l2.1-6.21h2.92l-4.79,12.32c-.76,1.95-2.25,2.79-3.86,2.79-1.28,0-2.23-.69-2.23-.69l.88-1.99Z"/><path class="cls-3" d="M202.93,821.32c3.63,0,5.5,2.04,5.5,2.04l-1.3,2.02s-1.7-1.57-4.07-1.57c-3.15,0-5,2.35-5,5.12s1.91,5.33,5.02,5.33c2.58,0,4.33-1.89,4.33-1.89l1.43,1.95s-2.06,2.42-5.86,2.42c-4.56,0-7.71-3.38-7.71-7.77s3.28-7.64,7.66-7.64Z"/><path class="cls-3" d="M210.91,821.58h2.67v5.17c0,.52-.04,.9-.04,.9h.04c.52-1.03,1.83-2.12,3.7-2.12,2.37,0,3.72,1.24,3.72,4.07v6.89h-2.65v-6.34c0-1.3-.34-2.18-1.7-2.18s-2.5,.92-2.9,2.23c-.13,.42-.17,.88-.17,1.39v4.91h-2.67v-14.91Z"/><path class="cls-3" d="M228.47,825.52c3.09,0,4.75,2.25,4.75,5.08,0,.31-.06,1.03-.06,1.03h-7.39c.17,1.87,1.62,2.83,3.21,2.83,1.72,0,3.09-1.18,3.09-1.18l1.03,1.91s-1.64,1.53-4.3,1.53c-3.55,0-5.75-2.56-5.75-5.61,0-3.3,2.25-5.61,5.44-5.61Zm2.06,4.28c-.04-1.45-.94-2.23-2.12-2.23-1.36,0-2.31,.84-2.56,2.23h4.68Z"/><path class="cls-3" d="M240.46,825.52c2.79,0,4.12,1.6,4.12,1.6l-1.18,1.83s-1.11-1.15-2.79-1.15c-1.97,0-3.25,1.49-3.25,3.32s1.3,3.36,3.34,3.36c1.81,0,3.15-1.37,3.15-1.37l1.03,1.89s-1.53,1.74-4.41,1.74c-3.55,0-5.82-2.5-5.82-5.61s2.27-5.61,5.82-5.61Z"/><path class="cls-3" d="M246.86,821.58h2.67v7.98h1.32l2.58-3.78h2.96l-3.38,4.79v.04l3.8,5.88h-3.06l-2.83-4.68h-1.39v4.68h-2.67v-14.91Z"/><path class="cls-3" d="M86.01,851.72h5.1c2.65,0,4.56,1.72,4.56,4.45s-1.91,4.51-4.56,4.51h-3.65v5.79h-1.45v-14.76Zm4.91,7.66c1.97,0,3.25-1.2,3.25-3.21s-1.28-3.15-3.23-3.15h-3.49v6.36h3.46Z"/><path class="cls-3" d="M98.14,851.72h1.43v5.71c0,.48-.04,.86-.04,.86h.04c.4-1.01,1.81-2.62,4.2-2.62,2.6,0,3.53,1.49,3.53,4.09v6.72h-1.43v-6.34c0-1.66-.25-3.13-2.29-3.13-1.81,0-3.36,1.24-3.84,3-.13,.42-.17,.9-.17,1.41v5.06h-1.43v-14.76Z"/><path class="cls-3" d="M115.4,855.67c3.09,0,5.58,2.35,5.58,5.48s-2.5,5.58-5.58,5.58-5.58-2.39-5.58-5.58,2.5-5.48,5.58-5.48Zm0,9.79c2.27,0,4.12-1.85,4.12-4.3s-1.85-4.18-4.12-4.18-4.12,1.78-4.12,4.18,1.85,4.3,4.12,4.3Z"/><path class="cls-3" d="M123.66,855.92h1.41v1.58c0,.46-.04,.84-.04,.84h.04c.38-.97,1.72-2.67,4.22-2.67s3.53,1.49,3.53,4.09v6.72h-1.43v-6.34c0-1.66-.25-3.13-2.29-3.13-1.81,0-3.36,1.24-3.84,2.98-.13,.44-.17,.92-.17,1.43v5.06h-1.43v-10.56Z"/><path class="cls-3" d="M140.58,855.67c2.92,0,4.41,2.25,4.41,4.87,0,.25-.04,.74-.04,.74h-8.1c.06,2.71,1.91,4.18,4.09,4.18,1.93,0,3.21-1.28,3.21-1.28l.65,1.09s-1.53,1.47-3.91,1.47c-3.15,0-5.52-2.27-5.52-5.52,0-3.46,2.35-5.54,5.21-5.54Zm2.96,4.43c-.08-2.2-1.43-3.23-3-3.23-1.76,0-3.3,1.11-3.63,3.23h6.63Z"/><path class="cls-3" d="M153.94,858.08h9.78v1.22h-9.78v-1.22Zm0,3.65h9.78v1.22h-9.78v-1.22Z"/><path class="cls-3" d="M173.81,851.72h4.37c1.51,0,2.18,.15,2.77,.4,1.39,.61,2.23,2.02,2.23,3.8,0,2-1.13,3.53-2.79,3.99v.04s.15,.19,.38,.59l3.21,5.94h-1.66l-3.34-6.21h-3.72v6.21h-1.45v-14.76Zm4.96,7.24c1.78,0,2.92-1.15,2.92-3,0-1.22-.48-2.12-1.34-2.58-.44-.23-.97-.36-2.1-.36h-2.98v5.94h3.51Z"/><path class="cls-3" d="M191.04,855.67c2.92,0,4.41,2.25,4.41,4.87,0,.25-.04,.74-.04,.74h-8.1c.06,2.71,1.91,4.18,4.09,4.18,1.93,0,3.21-1.28,3.21-1.28l.65,1.09s-1.53,1.47-3.91,1.47c-3.15,0-5.52-2.27-5.52-5.52,0-3.46,2.35-5.54,5.21-5.54Zm2.96,4.43c-.08-2.2-1.43-3.23-3-3.23-1.76,0-3.3,1.11-3.63,3.23h6.63Z"/><path class="cls-3" d="M199.61,855.92v10.96c0,3.51-2.5,3.93-3.67,3.93-.38,0-.63-.06-.63-.06v-1.24s.19,.02,.46,.02c.82,0,2.41-.29,2.41-2.71v-10.9h1.43Zm-1.45-4.2h1.47v1.79h-1.47v-1.79Z"/><path class="cls-3" d="M207.53,855.67c2.92,0,4.41,2.25,4.41,4.87,0,.25-.04,.74-.04,.74h-8.1c.06,2.71,1.91,4.18,4.09,4.18,1.93,0,3.21-1.28,3.21-1.28l.65,1.09s-1.53,1.47-3.91,1.47c-3.15,0-5.52-2.27-5.52-5.52,0-3.46,2.35-5.54,5.21-5.54Zm2.96,4.43c-.08-2.2-1.43-3.23-3-3.23-1.76,0-3.3,1.11-3.63,3.23h6.63Z"/><path class="cls-3" d="M219.48,855.67c2.58,0,3.86,1.51,3.86,1.51l-.73,1.07s-1.18-1.28-3.09-1.28c-2.31,0-4.12,1.72-4.12,4.24s1.83,4.24,4.16,4.24c2.14,0,3.38-1.49,3.38-1.49l.65,1.11s-1.43,1.66-4.12,1.66c-3.13,0-5.54-2.25-5.54-5.52s2.44-5.54,5.54-5.54Z"/><path class="cls-3" d="M226.6,857.24h-1.39v-1.2h1.41v-3.04h1.41v3.04h2.65v1.2h-2.65v5.25c0,2.48,1.57,2.79,2.37,2.79,.29,0,.48-.04,.48-.04v1.28s-.23,.04-.61,.04c-1.22,0-3.67-.4-3.67-3.93v-5.4Z"/><path class="cls-3" d="M87.39,876.92h8.31v1.3h-6.87v5.38h5.61v1.3h-5.61v5.48h7.24v1.3h-8.69v-14.76Z"/><path class="cls-3" d="M98.96,881.12h1.41v1.57c0,.46-.04,.84-.04,.84h.04c.5-1.43,2.18-2.67,3.82-2.67,1.95,0,2.96,.9,3.28,2.64h.04c.57-1.43,2.1-2.64,3.88-2.64,2.56,0,3.51,1.49,3.51,4.09v6.72h-1.43v-6.36c0-1.72-.36-3.15-2.29-3.15-1.62,0-2.94,1.43-3.34,2.98-.15,.46-.19,.96-.19,1.53v5h-1.43v-6.36c0-1.6-.23-3.15-2.23-3.15-1.72,0-3.02,1.49-3.46,3.11-.1,.44-.15,.92-.15,1.41v5h-1.43v-10.56Z"/><path class="cls-3" d="M123.8,885.15h.59v-.27c0-2.04-1.11-2.73-2.62-2.73-1.74,0-2.98,1.01-2.98,1.01l-.67-1.09s1.39-1.2,3.76-1.2c2.54,0,3.95,1.41,3.95,4.05v6.76h-1.36v-1.15c0-.53,.04-.88,.04-.88h-.04s-.88,2.29-3.53,2.29c-1.76,0-3.59-1.03-3.59-3.13,0-3.57,4.64-3.65,6.47-3.65Zm-2.65,5.56c2.02,0,3.23-2.1,3.23-3.93v-.46h-.61c-1.66,0-4.98,.06-4.98,2.39,0,.99,.78,2,2.35,2Z"/><path class="cls-3" d="M129.08,876.92h1.49v1.78h-1.49v-1.78Zm.04,4.2h1.43v10.56h-1.43v-10.56Z"/><path class="cls-3" d="M133.88,876.92h1.43v11.95c0,1.39,.63,1.6,1.18,1.6,.19,0,.36-.02,.36-.02v1.28s-.25,.04-.52,.04c-.88,0-2.44-.27-2.44-2.58v-12.26Z"/><path class="cls-3" d="M145.39,883.28h9.78v1.22h-9.78v-1.22Zm0,3.65h9.78v1.22h-9.78v-1.22Z"/><path class="cls-3" d="M172.54,886.98h-5.94l-1.68,4.7h-1.53l5.42-14.76h1.55l5.42,14.76h-1.53l-1.7-4.7Zm-2.98-8.52s-.31,1.22-.57,1.91l-1.97,5.35h5.08l-1.93-5.35c-.25-.69-.57-1.91-.57-1.91h-.04Z"/><path class="cls-3" d="M182.58,880.87c2.58,0,3.86,1.51,3.86,1.51l-.73,1.07s-1.18-1.28-3.09-1.28c-2.31,0-4.12,1.72-4.12,4.24s1.83,4.24,4.16,4.24c2.14,0,3.38-1.49,3.38-1.49l.65,1.11s-1.43,1.66-4.12,1.66c-3.13,0-5.54-2.25-5.54-5.52s2.44-5.54,5.54-5.54Z"/><path class="cls-3" d="M194.11,880.87c2.58,0,3.86,1.51,3.86,1.51l-.73,1.07s-1.18-1.28-3.09-1.28c-2.31,0-4.12,1.72-4.12,4.24s1.83,4.24,4.16,4.24c2.14,0,3.38-1.49,3.38-1.49l.65,1.11s-1.43,1.66-4.12,1.66c-3.13,0-5.54-2.25-5.54-5.52s2.44-5.54,5.54-5.54Z"/><path class="cls-3" d="M205.3,880.87c2.92,0,4.41,2.25,4.41,4.87,0,.25-.04,.73-.04,.73h-8.1c.06,2.71,1.91,4.18,4.09,4.18,1.93,0,3.21-1.28,3.21-1.28l.65,1.09s-1.53,1.47-3.91,1.47c-3.15,0-5.52-2.27-5.52-5.52,0-3.46,2.35-5.54,5.21-5.54Zm2.96,4.43c-.08-2.21-1.43-3.23-3-3.23-1.76,0-3.3,1.11-3.63,3.23h6.63Z"/><path class="cls-3" d="M212.44,881.12h1.36v1.03c0,.46-.04,.82-.04,.82h.04s.86-2.1,3.65-2.1,4.6,2.27,4.6,5.54-1.99,5.52-4.72,5.52c-2.54,0-3.46-2.02-3.46-2.02h-.04s.04,.38,.04,.92v5.04h-1.43v-14.76Zm4.75,9.55c1.87,0,3.4-1.57,3.4-4.26s-1.36-4.24-3.34-4.24c-1.76,0-3.42,1.26-3.42,4.26,0,2.12,1.18,4.24,3.36,4.24Z"/><path class="cls-3" d="M225.21,882.44h-1.39v-1.2h1.41v-3.04h1.41v3.04h2.65v1.2h-2.65v5.25c0,2.48,1.57,2.79,2.37,2.79,.29,0,.48-.04,.48-.04v1.28s-.23,.04-.61,.04c-1.22,0-3.67-.4-3.67-3.93v-5.4Z"/></g></g><g><g><g><path class="cls-5" d="M143.15,641.38h2.71l5.65,8.61c.57,.86,1.24,2.31,1.24,2.31h.04s-.15-1.43-.15-2.31v-8.61h2.69v14.91h-2.69l-5.65-8.59c-.57-.86-1.24-2.31-1.24-2.31h-.04s.15,1.43,.15,2.31v8.59h-2.71v-14.91Z"/><path class="cls-5" d="M165.79,641.13c4.39,0,7.71,3.34,7.71,7.6s-3.32,7.81-7.71,7.81-7.71-3.42-7.71-7.81,3.32-7.6,7.71-7.6Zm0,12.93c2.73,0,4.91-2.27,4.91-5.33s-2.18-5.12-4.91-5.12-4.91,2.18-4.91,5.12,2.18,5.33,4.91,5.33Z"/></g><rect class="cls-8" x="101.27" y="621.93" width="113.09" height="53.81" rx="9.54" ry="9.54"/></g><line class="cls-7" x1="157.72" y1="621.93" x2="157.72" y2="590.32"/><g><line class="cls-7" x1="157.72" y1="696.04" x2="157.72" y2="675.74"/><polygon class="cls-5" points="165.58 693.74 157.72 707.35 149.86 693.74 165.58 693.74"/></g></g><rect class="cls-5" x="54.2" y="1157.27" width="207.23" height="207.23" transform="translate(-845.36 480.9) rotate(-45)"/><g><path class="cls-3" d="M60.28,1228.6h8.92v2.33h-6.21v3.91h5.02v2.33h-5.02v4.01h6.55v2.33h-9.26v-14.91Z"/><path class="cls-3" d="M71.94,1232.8h2.56v1.24c0,.4-.04,.74-.04,.74h.04c.52-1.05,1.81-2.23,3.49-2.23s2.69,.76,3.13,2.2h.04c.59-1.15,1.97-2.2,3.65-2.2,2.23,0,3.51,1.26,3.51,4.07v6.89h-2.67v-6.38c0-1.22-.23-2.14-1.47-2.14-1.36,0-2.27,1.09-2.58,2.44-.1,.42-.13,.88-.13,1.39v4.7h-2.67v-6.38c0-1.16-.19-2.14-1.45-2.14-1.39,0-2.29,1.09-2.62,2.46-.1,.4-.13,.88-.13,1.37v4.7h-2.67v-10.71Z"/><path class="cls-3" d="M96.55,1236.79h.36v-.15c0-1.41-.88-1.89-2.06-1.89-1.53,0-2.94,1.03-2.94,1.03l-1.01-1.91s1.66-1.32,4.2-1.32c2.81,0,4.45,1.55,4.45,4.26v6.7h-2.46v-.88c0-.42,.04-.76,.04-.76h-.04s-.82,1.89-3.25,1.89c-1.91,0-3.63-1.2-3.63-3.34,0-3.4,4.6-3.63,6.34-3.63Zm-2.04,4.89c1.41,0,2.41-1.51,2.41-2.81v-.25h-.46c-1.36,0-3.57,.19-3.57,1.68,0,.71,.52,1.39,1.62,1.39Z"/><path class="cls-3" d="M102.32,1228.6h2.65v2.37h-2.65v-2.37Zm0,4.2h2.67v10.71h-2.67v-10.71Z"/><path class="cls-3" d="M107.78,1228.6h2.65v11.17c0,1.18,.4,1.47,1.09,1.47,.21,0,.4-.02,.4-.02v2.33s-.4,.06-.84,.06c-1.47,0-3.3-.38-3.3-3.44v-11.57Z"/><path class="cls-3" d="M126.07,1228.35c4.41,0,7.73,3.34,7.73,7.62,0,1.81-.65,3.42-1.64,4.72l1.68,1.51-1.55,1.72-1.66-1.64c-1.24,.94-2.81,1.47-4.56,1.47-4.37,0-7.68-3.44-7.68-7.79s3.32-7.62,7.68-7.62Zm0,12.93c.9,0,1.89-.29,2.6-.78l-1.66-1.57,1.55-1.7,1.62,1.62c.5-.82,.82-1.83,.82-2.88,0-2.96-2.16-5.14-4.93-5.14s-4.89,2.18-4.89,5.14,2.16,5.31,4.89,5.31Z"/><path class="cls-3" d="M136.19,1232.8h2.67v6.34c0,1.3,.34,2.18,1.66,2.18,1.93,0,3-1.7,3-3.61v-4.91h2.67v10.71h-2.56v-1.22c0-.42,.04-.76,.04-.76h-.04c-.52,1.11-1.89,2.23-3.72,2.23-2.29,0-3.72-1.16-3.72-4.07v-6.89Z"/><path class="cls-3" d="M154.57,1236.79h.36v-.15c0-1.41-.88-1.89-2.06-1.89-1.53,0-2.94,1.03-2.94,1.03l-1.01-1.91s1.66-1.32,4.2-1.32c2.81,0,4.45,1.55,4.45,4.26v6.7h-2.46v-.88c0-.42,.04-.76,.04-.76h-.04s-.82,1.89-3.25,1.89c-1.91,0-3.63-1.2-3.63-3.34,0-3.4,4.6-3.63,6.34-3.63Zm-2.04,4.89c1.41,0,2.41-1.51,2.41-2.81v-.25h-.46c-1.36,0-3.57,.19-3.57,1.68,0,.71,.52,1.39,1.62,1.39Z"/><path class="cls-3" d="M160.2,1228.6h2.65v11.17c0,1.18,.4,1.47,1.09,1.47,.21,0,.4-.02,.4-.02v2.33s-.4,.06-.84,.06c-1.47,0-3.3-.38-3.3-3.44v-11.57Z"/><path class="cls-3" d="M166.31,1228.6h2.65v2.37h-2.65v-2.37Zm0,4.2h2.67v10.71h-2.67v-10.71Z"/><path class="cls-3" d="M172.38,1235.09h-1.39v-2.12h1.45v-3.09h2.6v3.09h2.44v2.12h-2.44v4.16c0,1.76,1.39,2.02,2.12,2.02,.29,0,.48-.04,.48-.04v2.33s-.31,.06-.82,.06c-1.49,0-4.45-.44-4.45-4.03v-4.49Z"/><path class="cls-3" d="M179.27,1245.23s.59,.44,1.2,.44c.73,0,1.45-.44,1.85-1.39l.4-.94-4.51-10.54h3l2.25,6.17c.21,.57,.4,1.45,.4,1.45h.04s.17-.84,.36-1.41l2.1-6.21h2.92l-4.79,12.32c-.76,1.95-2.25,2.79-3.86,2.79-1.28,0-2.23-.69-2.23-.69l.88-1.99Z"/><path class="cls-3" d="M202.93,1228.35c3.63,0,5.5,2.04,5.5,2.04l-1.3,2.02s-1.7-1.57-4.07-1.57c-3.15,0-5,2.35-5,5.12s1.91,5.33,5.02,5.33c2.58,0,4.33-1.89,4.33-1.89l1.43,1.95s-2.06,2.42-5.86,2.42c-4.56,0-7.71-3.38-7.71-7.77s3.28-7.64,7.66-7.64Z"/><path class="cls-3" d="M210.91,1228.6h2.67v5.17c0,.52-.04,.9-.04,.9h.04c.52-1.03,1.83-2.12,3.7-2.12,2.37,0,3.72,1.24,3.72,4.07v6.89h-2.65v-6.34c0-1.3-.34-2.18-1.7-2.18s-2.5,.92-2.9,2.23c-.13,.42-.17,.88-.17,1.39v4.91h-2.67v-14.91Z"/><path class="cls-3" d="M228.47,1232.55c3.09,0,4.75,2.25,4.75,5.08,0,.31-.06,1.03-.06,1.03h-7.39c.17,1.87,1.62,2.83,3.21,2.83,1.72,0,3.09-1.18,3.09-1.18l1.03,1.91s-1.64,1.53-4.3,1.53c-3.55,0-5.75-2.56-5.75-5.61,0-3.3,2.25-5.61,5.44-5.61Zm2.06,4.28c-.04-1.45-.94-2.23-2.12-2.23-1.36,0-2.31,.84-2.56,2.23h4.68Z"/><path class="cls-3" d="M240.46,1232.55c2.79,0,4.12,1.6,4.12,1.6l-1.18,1.83s-1.11-1.15-2.79-1.15c-1.97,0-3.25,1.49-3.25,3.32s1.3,3.36,3.34,3.36c1.81,0,3.15-1.37,3.15-1.37l1.03,1.89s-1.53,1.74-4.41,1.74c-3.55,0-5.82-2.5-5.82-5.61s2.27-5.61,5.82-5.61Z"/><path class="cls-3" d="M246.86,1228.6h2.67v7.98h1.32l2.58-3.78h2.96l-3.38,4.79v.04l3.8,5.88h-3.06l-2.83-4.68h-1.39v4.68h-2.67v-14.91Z"/><path class="cls-3" d="M86.01,1258.75h5.1c2.65,0,4.56,1.72,4.56,4.45s-1.91,4.51-4.56,4.51h-3.65v5.79h-1.45v-14.76Zm4.91,7.66c1.97,0,3.25-1.2,3.25-3.21s-1.28-3.15-3.23-3.15h-3.49v6.36h3.46Z"/><path class="cls-3" d="M98.14,1258.75h1.43v5.71c0,.48-.04,.86-.04,.86h.04c.4-1.01,1.81-2.62,4.2-2.62,2.6,0,3.53,1.49,3.53,4.09v6.72h-1.43v-6.34c0-1.66-.25-3.13-2.29-3.13-1.81,0-3.36,1.24-3.84,3-.13,.42-.17,.9-.17,1.41v5.06h-1.43v-14.76Z"/><path class="cls-3" d="M115.4,1262.7c3.09,0,5.58,2.35,5.58,5.48s-2.5,5.58-5.58,5.58-5.58-2.39-5.58-5.58,2.5-5.48,5.58-5.48Zm0,9.79c2.27,0,4.12-1.85,4.12-4.3s-1.85-4.18-4.12-4.18-4.12,1.78-4.12,4.18,1.85,4.3,4.12,4.3Z"/><path class="cls-3" d="M123.66,1262.95h1.41v1.58c0,.46-.04,.84-.04,.84h.04c.38-.97,1.72-2.67,4.22-2.67s3.53,1.49,3.53,4.09v6.72h-1.43v-6.34c0-1.66-.25-3.13-2.29-3.13-1.81,0-3.36,1.24-3.84,2.98-.13,.44-.17,.92-.17,1.43v5.06h-1.43v-10.56Z"/><path class="cls-3" d="M140.58,1262.7c2.92,0,4.41,2.25,4.41,4.87,0,.25-.04,.74-.04,.74h-8.1c.06,2.71,1.91,4.18,4.09,4.18,1.93,0,3.21-1.28,3.21-1.28l.65,1.09s-1.53,1.47-3.91,1.47c-3.15,0-5.52-2.27-5.52-5.52,0-3.46,2.35-5.54,5.21-5.54Zm2.96,4.43c-.08-2.2-1.43-3.23-3-3.23-1.76,0-3.3,1.11-3.63,3.23h6.63Z"/><path class="cls-3" d="M153.94,1265.11h9.78v1.22h-9.78v-1.22Zm0,3.65h9.78v1.22h-9.78v-1.22Z"/><path class="cls-3" d="M173.81,1258.75h4.37c1.51,0,2.18,.15,2.77,.4,1.39,.61,2.23,2.02,2.23,3.8,0,2-1.13,3.53-2.79,3.99v.04s.15,.19,.38,.59l3.21,5.94h-1.66l-3.34-6.21h-3.72v6.21h-1.45v-14.76Zm4.96,7.24c1.78,0,2.92-1.15,2.92-3,0-1.22-.48-2.12-1.34-2.58-.44-.23-.97-.36-2.1-.36h-2.98v5.94h3.51Z"/><path class="cls-3" d="M191.04,1262.7c2.92,0,4.41,2.25,4.41,4.87,0,.25-.04,.74-.04,.74h-8.1c.06,2.71,1.91,4.18,4.09,4.18,1.93,0,3.21-1.28,3.21-1.28l.65,1.09s-1.53,1.47-3.91,1.47c-3.15,0-5.52-2.27-5.52-5.52,0-3.46,2.35-5.54,5.21-5.54Zm2.96,4.43c-.08-2.2-1.43-3.23-3-3.23-1.76,0-3.3,1.11-3.63,3.23h6.63Z"/><path class="cls-3" d="M199.61,1262.95v10.96c0,3.51-2.5,3.93-3.67,3.93-.38,0-.63-.06-.63-.06v-1.24s.19,.02,.46,.02c.82,0,2.41-.29,2.41-2.71v-10.9h1.43Zm-1.45-4.2h1.47v1.79h-1.47v-1.79Z"/><path class="cls-3" d="M207.53,1262.7c2.92,0,4.41,2.25,4.41,4.87,0,.25-.04,.74-.04,.74h-8.1c.06,2.71,1.91,4.18,4.09,4.18,1.93,0,3.21-1.28,3.21-1.28l.65,1.09s-1.53,1.47-3.91,1.47c-3.15,0-5.52-2.27-5.52-5.52,0-3.46,2.35-5.54,5.21-5.54Zm2.96,4.43c-.08-2.2-1.43-3.23-3-3.23-1.76,0-3.3,1.11-3.63,3.23h6.63Z"/><path class="cls-3" d="M219.48,1262.7c2.58,0,3.86,1.51,3.86,1.51l-.73,1.07s-1.18-1.28-3.09-1.28c-2.31,0-4.12,1.72-4.12,4.24s1.83,4.24,4.16,4.24c2.14,0,3.38-1.49,3.38-1.49l.65,1.11s-1.43,1.66-4.12,1.66c-3.13,0-5.54-2.25-5.54-5.52s2.44-5.54,5.54-5.54Z"/><path class="cls-3" d="M226.6,1264.27h-1.39v-1.2h1.41v-3.04h1.41v3.04h2.65v1.2h-2.65v5.25c0,2.48,1.57,2.79,2.37,2.79,.29,0,.48-.04,.48-.04v1.28s-.23,.04-.61,.04c-1.22,0-3.67-.4-3.67-3.93v-5.4Z"/><path class="cls-3" d="M90.97,1283.95h8.31v1.3h-6.87v5.38h5.61v1.3h-5.61v5.48h7.24v1.3h-8.69v-14.76Z"/><path class="cls-3" d="M102.54,1288.15h1.41v1.57c0,.46-.04,.84-.04,.84h.04c.5-1.43,2.18-2.67,3.82-2.67,1.95,0,2.96,.9,3.28,2.64h.04c.57-1.43,2.1-2.64,3.88-2.64,2.56,0,3.51,1.49,3.51,4.09v6.72h-1.43v-6.36c0-1.72-.36-3.15-2.29-3.15-1.62,0-2.94,1.43-3.34,2.98-.15,.46-.19,.96-.19,1.53v5h-1.43v-6.36c0-1.6-.23-3.15-2.23-3.15-1.72,0-3.02,1.49-3.46,3.11-.1,.44-.15,.92-.15,1.41v5h-1.43v-10.56Z"/><path class="cls-3" d="M127.38,1292.18h.59v-.27c0-2.04-1.11-2.73-2.62-2.73-1.74,0-2.98,1.01-2.98,1.01l-.67-1.09s1.39-1.2,3.76-1.2c2.54,0,3.95,1.41,3.95,4.05v6.76h-1.36v-1.15c0-.53,.04-.88,.04-.88h-.04s-.88,2.29-3.53,2.29c-1.76,0-3.59-1.03-3.59-3.13,0-3.57,4.64-3.65,6.47-3.65Zm-2.65,5.56c2.02,0,3.23-2.1,3.23-3.93v-.46h-.61c-1.66,0-4.98,.06-4.98,2.39,0,.99,.78,2,2.35,2Z"/><path class="cls-3" d="M132.66,1283.95h1.49v1.78h-1.49v-1.78Zm.04,4.2h1.43v10.56h-1.43v-10.56Z"/><path class="cls-3" d="M137.47,1283.95h1.43v11.95c0,1.39,.63,1.6,1.18,1.6,.19,0,.36-.02,.36-.02v1.28s-.25,.04-.52,.04c-.88,0-2.44-.27-2.44-2.58v-12.26Z"/><path class="cls-3" d="M148.97,1290.31h9.78v1.22h-9.78v-1.22Zm0,3.65h9.78v1.22h-9.78v-1.22Z"/><path class="cls-3" d="M168.84,1283.95h4.37c1.51,0,2.18,.15,2.77,.4,1.39,.61,2.23,2.02,2.23,3.8,0,1.99-1.13,3.53-2.79,3.99v.04s.15,.19,.38,.59l3.21,5.94h-1.66l-3.34-6.21h-3.72v6.21h-1.45v-14.76Zm4.96,7.24c1.78,0,2.92-1.16,2.92-3,0-1.22-.48-2.12-1.34-2.58-.44-.23-.97-.36-2.1-.36h-2.98v5.94h3.51Z"/><path class="cls-3" d="M186.08,1287.9c2.92,0,4.41,2.25,4.41,4.87,0,.25-.04,.73-.04,.73h-8.1c.06,2.71,1.91,4.18,4.09,4.18,1.93,0,3.21-1.28,3.21-1.28l.65,1.09s-1.53,1.47-3.91,1.47c-3.15,0-5.52-2.27-5.52-5.52,0-3.46,2.35-5.54,5.21-5.54Zm2.96,4.43c-.08-2.21-1.43-3.23-3-3.23-1.76,0-3.3,1.11-3.63,3.23h6.63Z"/><path class="cls-3" d="M194.65,1288.15v10.96c0,3.51-2.5,3.93-3.67,3.93-.38,0-.63-.06-.63-.06v-1.24s.19,.02,.46,.02c.82,0,2.41-.29,2.41-2.71v-10.9h1.43Zm-1.45-4.2h1.47v1.78h-1.47v-1.78Z"/><path class="cls-3" d="M202.56,1287.9c2.92,0,4.41,2.25,4.41,4.87,0,.25-.04,.73-.04,.73h-8.1c.06,2.71,1.91,4.18,4.09,4.18,1.93,0,3.21-1.28,3.21-1.28l.65,1.09s-1.53,1.47-3.91,1.47c-3.15,0-5.52-2.27-5.52-5.52,0-3.46,2.35-5.54,5.21-5.54Zm2.96,4.43c-.08-2.21-1.43-3.23-3-3.23-1.76,0-3.3,1.11-3.63,3.23h6.63Z"/><path class="cls-3" d="M214.51,1287.9c2.58,0,3.86,1.51,3.86,1.51l-.73,1.07s-1.18-1.28-3.09-1.28c-2.31,0-4.12,1.72-4.12,4.24s1.83,4.24,4.16,4.24c2.14,0,3.38-1.49,3.38-1.49l.65,1.11s-1.43,1.66-4.12,1.66c-3.13,0-5.54-2.25-5.54-5.52s2.44-5.54,5.54-5.54Z"/><path class="cls-3" d="M221.63,1289.47h-1.39v-1.2h1.41v-3.04h1.41v3.04h2.65v1.2h-2.65v5.25c0,2.48,1.57,2.79,2.37,2.79,.29,0,.48-.04,.48-.04v1.28s-.23,.04-.61,.04c-1.22,0-3.67-.4-3.67-3.93v-5.4Z"/></g><g><g><path class="cls-5" d="M894.65,1057.06l-4.96-8.67h3.07l2.33,4.39c.48,.92,.88,2.02,.9,1.99h.04s.42-1.07,.9-1.99l2.31-4.39h3.07l-4.96,8.67v6.24h-2.71v-6.24Z"/><path class="cls-5" d="M904.25,1048.39h8.92v2.33h-6.21v3.91h5.02v2.33h-5.02v4.01h6.55v2.33h-9.26v-14.91Z"/><path class="cls-5" d="M916.66,1059.47s1.62,1.58,3.72,1.58c1.13,0,2.16-.59,2.16-1.81,0-2.67-7.03-2.21-7.03-6.78,0-2.48,2.14-4.33,5-4.33s4.45,1.6,4.45,1.6l-1.18,2.21s-1.43-1.3-3.3-1.3c-1.26,0-2.25,.73-2.25,1.78,0,2.65,7.01,2,7.01,6.76,0,2.37-1.81,4.37-4.91,4.37-3.32,0-5.14-2.04-5.14-2.04l1.47-2.04Z"/></g><rect class="cls-8" x="851.32" y="1028.93" width="113.09" height="53.81" rx="9.54" ry="9.54"/></g><rect class="cls-5" x="833.31" y="777.7" width="149.39" height="149.39" transform="translate(-336.79 891.72) rotate(-45)"/><g><path class="cls-3" d="M878.37,834.34h2.71v14.91h-2.71v-14.91Z"/><path class="cls-3" d="M884.99,840.83h-1.32v-2.12h1.32v-.48c0-3.51,2.88-3.97,4.37-3.97,.55,0,.9,.06,.9,.06v2.27s-.23-.04-.55-.04c-.76,0-2.06,.19-2.06,1.74v.42h2.29v2.12h-2.29v8.42h-2.67v-8.42Z"/><path class="cls-3" d="M897.25,834.34h2.71v12.58h6.45v2.33h-9.15v-14.91Z"/><path class="cls-3" d="M912.83,838.29c3.09,0,4.75,2.25,4.75,5.08,0,.32-.06,1.03-.06,1.03h-7.39c.17,1.87,1.62,2.83,3.21,2.83,1.72,0,3.09-1.18,3.09-1.18l1.03,1.91s-1.64,1.53-4.3,1.53c-3.55,0-5.75-2.56-5.75-5.61,0-3.3,2.25-5.61,5.44-5.61Zm2.06,4.28c-.04-1.45-.94-2.23-2.12-2.23-1.37,0-2.31,.84-2.56,2.23h4.68Z"/><path class="cls-3" d="M925.22,842.53h.36v-.15c0-1.41-.88-1.89-2.06-1.89-1.53,0-2.94,1.03-2.94,1.03l-1.01-1.91s1.66-1.32,4.2-1.32c2.81,0,4.45,1.55,4.45,4.26v6.7h-2.46v-.88c0-.42,.04-.76,.04-.76h-.04s-.82,1.89-3.25,1.89c-1.91,0-3.63-1.2-3.63-3.34,0-3.4,4.6-3.63,6.34-3.63Zm-2.04,4.89c1.41,0,2.42-1.51,2.42-2.81v-.25h-.46c-1.37,0-3.57,.19-3.57,1.68,0,.71,.52,1.39,1.62,1.39Z"/><path class="cls-3" d="M935.11,838.29c2.35,0,3.09,1.37,3.09,1.37h.04s-.02-.27-.02-.61v-4.7h2.67v14.91h-2.52v-.88c0-.4,.04-.69,.04-.69h-.04s-.9,1.83-3.36,1.83c-2.9,0-4.75-2.29-4.75-5.61s2.02-5.61,4.85-5.61Zm.5,8.97c1.39,0,2.69-1.01,2.69-3.38,0-1.66-.88-3.3-2.67-3.3-1.47,0-2.69,1.2-2.69,3.32s1.09,3.36,2.67,3.36Z"/><path class="cls-3" d="M842.18,859.54h2.71v6.32h6.82v-6.32h2.71v14.91h-2.71v-6.26h-6.82v6.26h-2.71v-14.91Z"/><path class="cls-3" d="M863.22,867.73h.36v-.15c0-1.41-.88-1.89-2.06-1.89-1.53,0-2.94,1.03-2.94,1.03l-1.01-1.91s1.66-1.32,4.2-1.32c2.81,0,4.45,1.55,4.45,4.26v6.7h-2.46v-.88c0-.42,.04-.76,.04-.76h-.04s-.82,1.89-3.25,1.89c-1.91,0-3.63-1.2-3.63-3.34,0-3.4,4.6-3.63,6.34-3.63Zm-2.04,4.89c1.41,0,2.41-1.51,2.41-2.81v-.25h-.46c-1.36,0-3.57,.19-3.57,1.68,0,.71,.53,1.39,1.62,1.39Z"/><path class="cls-3" d="M868.99,863.74h2.56v1.85c0,.4-.04,.76-.04,.76h.04c.48-1.53,1.76-2.75,3.4-2.75,.25,0,.48,.04,.48,.04v2.62s-.27-.04-.63-.04c-1.13,0-2.42,.65-2.92,2.25-.17,.53-.23,1.11-.23,1.74v4.24h-2.67v-10.71Z"/><path class="cls-3" d="M881.36,863.49c2.35,0,3.09,1.36,3.09,1.36h.04s-.02-.27-.02-.61v-4.7h2.67v14.91h-2.52v-.88c0-.4,.04-.69,.04-.69h-.04s-.9,1.83-3.36,1.83c-2.9,0-4.75-2.29-4.75-5.61s2.02-5.61,4.85-5.61Zm.5,8.97c1.39,0,2.69-1.01,2.69-3.38,0-1.66-.88-3.3-2.67-3.3-1.47,0-2.69,1.2-2.69,3.32s1.09,3.36,2.67,3.36Z"/><path class="cls-3" d="M895.6,859.54h5.33c2.69,0,4.6,1.39,4.6,3.84,0,1.38-.67,2.58-1.81,3.19v.04c1.64,.48,2.41,2,2.41,3.51,0,2.98-2.39,4.33-5.14,4.33h-5.4v-14.91Zm5.33,6.09c1.18,0,1.85-.84,1.85-1.91s-.63-1.85-1.89-1.85h-2.58v3.76h2.62Zm.27,6.49c1.39,0,2.16-.9,2.16-2.16s-.8-2.14-2.16-2.14h-2.9v4.3h2.9Z"/><path class="cls-3" d="M913.74,863.49c3.28,0,5.9,2.33,5.9,5.61s-2.62,5.61-5.88,5.61-5.9-2.31-5.9-5.61,2.62-5.61,5.88-5.61Zm.02,8.94c1.72,0,3.17-1.34,3.17-3.34s-1.45-3.34-3.17-3.34-3.19,1.36-3.19,3.34,1.45,3.34,3.19,3.34Z"/><path class="cls-3" d="M921.64,863.74h2.67v6.34c0,1.3,.34,2.18,1.66,2.18,1.93,0,3-1.7,3-3.61v-4.91h2.67v10.71h-2.56v-1.22c0-.42,.04-.76,.04-.76h-.04c-.52,1.11-1.89,2.23-3.72,2.23-2.29,0-3.72-1.15-3.72-4.07v-6.89Z"/><path class="cls-3" d="M934.58,863.74h2.56v1.24c0,.4-.04,.73-.04,.73h.04c.46-.9,1.64-2.23,3.8-2.23,2.37,0,3.72,1.24,3.72,4.07v6.89h-2.65v-6.34c0-1.3-.34-2.18-1.7-2.18s-2.48,.9-2.88,2.18c-.15,.44-.19,.92-.19,1.43v4.91h-2.67v-10.71Z"/><path class="cls-3" d="M952.49,863.49c2.79,0,4.12,1.6,4.12,1.6l-1.18,1.83s-1.11-1.16-2.79-1.16c-1.97,0-3.25,1.49-3.25,3.32s1.3,3.36,3.34,3.36c1.81,0,3.15-1.37,3.15-1.37l1.03,1.89s-1.53,1.74-4.41,1.74c-3.55,0-5.82-2.5-5.82-5.61s2.27-5.61,5.82-5.61Z"/><path class="cls-3" d="M963.58,863.49c3.09,0,4.75,2.25,4.75,5.08,0,.31-.06,1.03-.06,1.03h-7.39c.17,1.87,1.62,2.83,3.21,2.83,1.72,0,3.09-1.18,3.09-1.18l1.03,1.91s-1.64,1.53-4.3,1.53c-3.55,0-5.75-2.56-5.75-5.61,0-3.3,2.25-5.61,5.44-5.61Zm2.06,4.28c-.04-1.45-.94-2.23-2.12-2.23-1.37,0-2.31,.84-2.56,2.23h4.68Z"/><path class="cls-3" d="M970.84,871.26s1.18,1.18,2.92,1.18c.76,0,1.41-.34,1.41-.97,0-1.6-5.21-1.39-5.21-4.83,0-1.99,1.79-3.15,4.09-3.15s3.59,1.22,3.59,1.22l-.99,1.97s-.99-.92-2.62-.92c-.69,0-1.36,.29-1.36,.97,0,1.51,5.21,1.32,5.21,4.77,0,1.79-1.55,3.21-4.09,3.21-2.67,0-4.16-1.57-4.16-1.57l1.22-1.87Z"/></g></svg>